<svg height="64" shape-rendering="crispEdges" width="64" xmlns="http://www.w3.org/2000/svg"><text x="50%" y="50%" style="font-family:sans-serif" dominant-baseline="middle" text-anchor="middle" id="_">Loading ...</text><defs><style type="text/css">#_0,#_1,#_2,#_3,#_4,#_5,#_6,#_7,#_8{visibility:hidden}</style></defs><g id="_0">><path d="m2 1h6v3h-6zm-1 1h1v1h-1zm7 0h2v3h-2zm2 1h1v6h-1zm-3 1h1v1h-1zm4 0h1v3h-1zm-2 1h1v5h-1zm-1 1h1v5h-1zm-1 2h1v10h-1zm-1 1h1v8h-1zm-1 1h1v6h-1zm26 4h5v3h-5zm-23 1h6v3h-6zm20 0h3v3h-3zm8 0h3v3h-3zm-22 1h3v3h-3zm11 0h3v3h-3zm14 0h1v4h-1zm-22 1h2v3h-2zm6 0h2v3h-2zm8 0h1v1h-1z" fill="#9779ff"/><path d="m32 17h4v13h-4z" fill="#3f3f74"/><path d="m40 17h2v3h-2zm-27 1h1v1h-1zm6 0h1v7h-1zm2 0h2v6h-2z" fill="#9779ff"/><path d="m28 18h4v8h-4zm8 0h2v13h-2z" fill="#3f3f74"/><path d="m38 18h1v1h-1zm4 0h1v4h-1zm-26 1h1v1h-1zm4 0h1v5h-1z" fill="#9779ff"/><path d="m25 19h3v4h-3zm13 0h1v11h-1z" fill="#3f3f74"/><path d="m43 19h1v4h-1zm-25 1h1v8h-1zm5 0h1v6h-1z" fill="#9779ff"/><path d="m24 20h1v2h-1zm15 0h2v8h-2z" fill="#3f3f74"/><path d="m41 20h1v1h-1zm3 0h1v7h-1z" fill="#9779ff"/><path d="m41 21h1v6h-1z" fill="#3f3f74"/><path d="m45 21h1v5h-1zm-21 1h1v5h-1z" fill="#9779ff"/><path d="m42 22h1v4h-1z" fill="#3f3f74"/><path d="m46 22h1v3h-1zm-29 1h1v9h-1zm8 0h1v5h-1z" fill="#9779ff"/><path d="m26 23h2v1h-2zm17 0h1v2h-1z" fill="#3f3f74"/><path d="m47 23h1v3h-1z" fill="#9779ff"/><path d="m20 24h2v17h-2z" fill="#3f3f74"/><path d="m22 24h1v1h-1zm4 0h1v5h-1z" fill="#9779ff"/><path d="m27 24h1v1h-1z" fill="#3f3f74"/><path d="m48 24h1v3h-1zm-32 1h1v15h-1z" fill="#9779ff"/><path d="m19 25h1v14h-1zm3 0h1v18h-1z" fill="#3f3f74"/><path d="m27 25h1v5h-1zm16 0h1v3h-1z" fill="#9779ff"/><path d="m46 25h1v29h-1z" fill="#3f3f74"/><path d="m49 25h1v3h-1z" fill="#9779ff"/><path d="m23 26h1v18h-1z" fill="#3f3f74"/><path d="m28 26h1v5h-1z" fill="#9779ff"/><path d="m29 26h3v1h-3z" fill="#3f3f74"/><path d="m42 26h1v3h-1z" fill="#9779ff"/><path d="m45 26h1v29h-1zm2 0h1v27h-1z" fill="#3f3f74"/><path d="m50 26h1v3h-1z" fill="#9779ff"/><path d="m24 27h1v17h-1z" fill="#3f3f74"/><path d="m29 27h1v5h-1z" fill="#9779ff"/><path d="m30 27h2v1h-2z" fill="#3f3f74"/><path d="m41 27h1v3h-1z" fill="#9779ff"/><path d="m44 27h1v29h-1zm4 0h1v25h-1z" fill="#3f3f74"/><path d="m51 27h1v3h-1zm-36 1h1v11h-1z" fill="#9779ff"/><path d="m18 28h1v10h-1zm7 0h1v15h-1z" fill="#3f3f74"/><path d="m30 28h1v5h-1z" fill="#9779ff"/><path d="m31 28h1v1h-1zm8 0h1v1h-1z" fill="#3f3f74"/><path d="m40 28h1v3h-1z" fill="#9779ff"/><path d="m43 28h1v29h-1zm6 0h1v23h-1z" fill="#3f3f74"/><path d="m52 28h1v3h-1z" fill="#9779ff"/><path d="m26 29h1v13h-1z" fill="#3f3f74"/><path d="m31 29h1v5h-1zm8 0h1v3h-1z" fill="#9779ff"/><path d="m42 29h1v28h-1zm8 0h1v22h-1z" fill="#3f3f74"/><path d="m53 29h1v3h-1z" fill="#9779ff"/><path d="m27 30h1v11h-1z" fill="#3f3f74"/><path d="m32 30h1v5h-1z" fill="#9779ff"/><path d="m33 30h3v1h-3z" fill="#3f3f74"/><path d="m38 30h1v3h-1z" fill="#9779ff"/><path d="m41 30h1v28h-1zm10 0h1v19h-1z" fill="#3f3f74"/><path d="m54 30h1v3h-1zm-40 1h1v5h-1z" fill="#9779ff"/><path d="m28 31h1v9h-1z" fill="#3f3f74"/><path d="m33 31h1v7h-1z" fill="#9779ff"/><path d="m34 31h3v1h-3z" fill="#3f3f74"/><path d="m37 31h1v3h-1z" fill="#9779ff"/><path d="m40 31h1v28h-1zm12 0h1v17h-1z" fill="#3f3f74"/><path d="m55 31h1v3h-1z" fill="#9779ff"/><path d="m17 32h1v4h-1zm12 0h1v7h-1z" fill="#3f3f74"/><path d="m34 32h1v5h-1z" fill="#9779ff"/><path d="m35 32h1v1h-1z" fill="#3f3f74"/><path d="m36 32h1v3h-1z" fill="#9779ff"/><path d="m39 32h1v28h-1zm14 0h1v15h-1z" fill="#3f3f74"/><path d="m56 32h1v3h-1z" fill="#9779ff"/><path d="m30 33h1v5h-1z" fill="#3f3f74"/><path d="m35 33h1v3h-1z" fill="#9779ff"/><path d="m38 33h1v26h-1zm16 0h1v13h-1z" fill="#3f3f74"/><path d="m57 33h1v3h-1z" fill="#9779ff"/><path d="m31 34h1v3h-1zm6 0h1v25h-1zm18 0h1v11h-1z" fill="#3f3f74"/><path d="m58 34h1v3h-1z" fill="#9779ff"/><path d="m32 35h1v1h-1zm4 0h1v23h-1zm20 0h1v9h-1z" fill="#3f3f74"/><path d="m59 35h1v4h-1zm-42 1h1v6h-1zm15 0h1v3h-1z" fill="#9779ff"/><path d="m35 36h1v21h-1zm22 0h1v6h-1z" fill="#3f3f74"/><path d="m60 36h1v7h-1zm-29 1h1v3h-1z" fill="#9779ff"/><path d="m34 37h1v19h-1zm24 0h1v4h-1z" fill="#3f3f74"/><path d="m18 38h1v5h-1zm12 0h1v3h-1z" fill="#9779ff"/><path d="m33 38h1v17h-1z" fill="#3f3f74"/><path d="m61 38h1v3h-1zm-42 1h1v5h-1zm10 0h1v3h-1z" fill="#9779ff"/><path d="m32 39h1v15h-1zm27 0h1v1h-1z" fill="#3f3f74"/><path d="m28 40h1v3h-1z" fill="#9779ff"/><path d="m31 40h1v13h-1z" fill="#3f3f74"/><path d="m59 40h1v5h-1zm-39 1h1v4h-1z" fill="#9779ff"/><path d="m21 41h1v1h-1z" fill="#3f3f74"/><path d="m27 41h1v3h-1z" fill="#9779ff"/><path d="m30 41h1v11h-1z" fill="#3f3f74"/><path d="m58 41h1v5h-1zm-37 1h1v4h-1zm5 0h1v3h-1z" fill="#9779ff"/><path d="m29 42h1v9h-1z" fill="#3f3f74"/><path d="m57 42h1v5h-1zm-35 1h1v4h-1zm3 0h1v3h-1z" fill="#9779ff"/><path d="m28 43h1v7h-1z" fill="#3f3f74"/><path d="m23 44h2v4h-2z" fill="#9779ff"/><path d="m27 44h1v5h-1z" fill="#3f3f74"/><path d="m56 44h1v4h-1z" fill="#9779ff"/><path d="m26 45h1v3h-1z" fill="#3f3f74"/><path d="m55 45h1v4h-1z" fill="#9779ff"/><path d="m25 46h1v1h-1z" fill="#3f3f74"/><path d="m54 46h1v4h-1zm-29 1h1v3h-1zm28 0h1v4h-1zm-29 1h1v1h-1zm2 0h1v3h-1zm26 0h1v4h-1zm-25 1h1v3h-1zm24 0h1v4h-1zm-23 1h1v3h-1zm1 1h1v3h-1zm20 0h2v3h-2zm-19 1h1v3h-1zm18 0h1v4h-1zm-17 1h1v3h-1zm16 0h1v4h-1zm-15 1h1v3h-1zm14 0h1v4h-1zm3 0h1v1h-1zm-16 1h1v3h-1zm12 0h1v4h-1zm-11 1h1v3h-1zm10 0h1v4h-1zm-9 1h1v3h-1zm7 0h2v3h-2zm-6 1h1v3h-1zm5 0h1v3h-1zm-4 1h2v2h-2zm3 0h1v3h-1zm-1 1h1v2h-1zm3 0h1v1h-1zm-4 1h1v1h-1z" fill="#9779ff"/></g><g id="_1">><path d="m2 1h6v3h-6z" fill="#9779ff"/><path d="m21 1h6v2h-6zm8 0h2v12h-2zm10 0h2v12h-2zm6 0h6v2h-6zm8 0h2v12h-2zm6 0h2v2h-2z" fill="#d95763"/><path d="m1 2h1v1h-1zm7 0h2v3h-2zm2 1h1v6h-1z" fill="#9779ff"/><path d="m19 3h2v8h-2zm24 0h2v8h-2zm14 0h2v2h-2z" fill="#d95763"/><path d="m7 4h1v1h-1zm4 0h1v3h-1zm-2 1h1v5h-1z" fill="#9779ff"/><path d="m55 5h2v4h-2z" fill="#d95763"/><path d="m8 6h1v5h-1zm-1 2h1v10h-1zm-1 1h1v8h-1z" fill="#9779ff"/><path d="m57 9h2v2h-2z" fill="#d95763"/><path d="m5 10h1v6h-1z" fill="#9779ff"/><path d="m21 11h6v2h-6zm10 0h6v2h-6zm14 0h6v2h-6zm14 0h2v2h-2z" fill="#d95763"/><path d="m31 14h5v3h-5zm-23 1h6v3h-6zm20 0h3v3h-3zm8 0h3v3h-3zm-22 1h3v3h-3zm11 0h3v3h-3zm14 0h1v4h-1zm-22 1h2v3h-2zm6 0h2v3h-2zm8 0h1v1h-1z" fill="#9779ff"/><path d="m32 17h4v13h-4z" fill="#3f3f74"/><path d="m40 17h2v3h-2zm-27 1h1v1h-1zm6 0h1v7h-1zm2 0h2v6h-2z" fill="#9779ff"/><path d="m28 18h4v8h-4zm8 0h2v13h-2z" fill="#3f3f74"/><path d="m38 18h1v1h-1zm4 0h1v4h-1zm-26 1h1v1h-1zm4 0h1v5h-1z" fill="#9779ff"/><path d="m25 19h3v4h-3zm13 0h1v11h-1z" fill="#3f3f74"/><path d="m43 19h1v4h-1zm-25 1h1v8h-1zm5 0h1v6h-1z" fill="#9779ff"/><path d="m24 20h1v2h-1zm15 0h2v8h-2z" fill="#3f3f74"/><path d="m41 20h1v1h-1zm3 0h1v7h-1z" fill="#9779ff"/><path d="m41 21h1v6h-1z" fill="#3f3f74"/><path d="m45 21h1v5h-1zm-21 1h1v5h-1z" fill="#9779ff"/><path d="m42 22h1v4h-1z" fill="#3f3f74"/><path d="m46 22h1v3h-1zm-29 1h1v9h-1zm8 0h1v5h-1z" fill="#9779ff"/><path d="m26 23h2v1h-2zm17 0h1v2h-1z" fill="#3f3f74"/><path d="m47 23h1v3h-1z" fill="#9779ff"/><path d="m20 24h2v17h-2z" fill="#d95763"/><path d="m22 24h1v1h-1zm4 0h1v5h-1z" fill="#9779ff"/><path d="m27 24h1v1h-1z" fill="#3f3f74"/><path d="m48 24h1v3h-1zm-32 1h1v15h-1z" fill="#9779ff"/><path d="m19 25h1v14h-1zm3 0h1v18h-1z" fill="#d95763"/><path d="m27 25h1v5h-1zm16 0h1v3h-1z" fill="#9779ff"/><path d="m46 25h1v29h-1z" fill="#3f3f74"/><path d="m49 25h1v3h-1z" fill="#9779ff"/><path d="m23 26h1v18h-1z" fill="#d95763"/><path d="m28 26h1v5h-1z" fill="#9779ff"/><path d="m29 26h3v1h-3z" fill="#3f3f74"/><path d="m42 26h1v3h-1z" fill="#9779ff"/><path d="m45 26h1v29h-1zm2 0h1v27h-1z" fill="#3f3f74"/><path d="m50 26h1v3h-1z" fill="#9779ff"/><path d="m24 27h1v17h-1z" fill="#d95763"/><path d="m29 27h1v5h-1z" fill="#9779ff"/><path d="m30 27h2v1h-2z" fill="#3f3f74"/><path d="m41 27h1v3h-1z" fill="#9779ff"/><path d="m44 27h1v29h-1zm4 0h1v25h-1z" fill="#3f3f74"/><path d="m51 27h1v3h-1zm-36 1h1v11h-1z" fill="#9779ff"/><path d="m18 28h1v10h-1zm7 0h1v15h-1z" fill="#d95763"/><path d="m30 28h1v5h-1z" fill="#9779ff"/><path d="m31 28h1v1h-1zm8 0h1v1h-1z" fill="#3f3f74"/><path d="m40 28h1v3h-1z" fill="#9779ff"/><path d="m43 28h1v29h-1zm6 0h1v23h-1z" fill="#3f3f74"/><path d="m52 28h1v3h-1z" fill="#9779ff"/><path d="m26 29h1v13h-1z" fill="#d95763"/><path d="m31 29h1v5h-1zm8 0h1v3h-1z" fill="#9779ff"/><path d="m42 29h1v28h-1zm8 0h1v22h-1z" fill="#3f3f74"/><path d="m53 29h1v3h-1z" fill="#9779ff"/><path d="m27 30h1v11h-1z" fill="#d95763"/><path d="m32 30h1v5h-1z" fill="#9779ff"/><path d="m33 30h3v1h-3z" fill="#3f3f74"/><path d="m38 30h1v3h-1z" fill="#9779ff"/><path d="m41 30h1v28h-1zm10 0h1v19h-1z" fill="#3f3f74"/><path d="m54 30h1v3h-1zm-40 1h1v5h-1z" fill="#9779ff"/><path d="m28 31h1v9h-1z" fill="#d95763"/><path d="m33 31h1v7h-1z" fill="#9779ff"/><path d="m34 31h3v1h-3z" fill="#3f3f74"/><path d="m37 31h1v3h-1z" fill="#9779ff"/><path d="m40 31h1v28h-1zm12 0h1v17h-1z" fill="#3f3f74"/><path d="m55 31h1v3h-1z" fill="#9779ff"/><path d="m17 32h1v4h-1zm12 0h1v7h-1z" fill="#d95763"/><path d="m34 32h1v5h-1z" fill="#9779ff"/><path d="m35 32h1v1h-1z" fill="#3f3f74"/><path d="m36 32h1v3h-1z" fill="#9779ff"/><path d="m39 32h1v28h-1zm14 0h1v15h-1z" fill="#3f3f74"/><path d="m56 32h1v3h-1z" fill="#9779ff"/><path d="m30 33h1v5h-1z" fill="#d95763"/><path d="m35 33h1v3h-1z" fill="#9779ff"/><path d="m38 33h1v26h-1zm16 0h1v13h-1z" fill="#3f3f74"/><path d="m57 33h1v3h-1z" fill="#9779ff"/><path d="m31 34h1v3h-1z" fill="#d95763"/><path d="m37 34h1v25h-1zm18 0h1v11h-1z" fill="#3f3f74"/><path d="m58 34h1v3h-1z" fill="#9779ff"/><path d="m32 35h1v1h-1z" fill="#d95763"/><path d="m36 35h1v23h-1zm20 0h1v9h-1z" fill="#3f3f74"/><path d="m59 35h1v4h-1zm-42 1h1v6h-1zm15 0h1v3h-1z" fill="#9779ff"/><path d="m35 36h1v21h-1zm22 0h1v6h-1z" fill="#3f3f74"/><path d="m60 36h1v7h-1zm-29 1h1v3h-1z" fill="#9779ff"/><path d="m34 37h1v19h-1zm24 0h1v4h-1z" fill="#3f3f74"/><path d="m18 38h1v5h-1zm12 0h1v3h-1z" fill="#9779ff"/><path d="m33 38h1v17h-1z" fill="#3f3f74"/><path d="m61 38h1v3h-1zm-42 1h1v5h-1zm10 0h1v3h-1z" fill="#9779ff"/><path d="m32 39h1v15h-1zm27 0h1v1h-1z" fill="#3f3f74"/><path d="m28 40h1v3h-1z" fill="#9779ff"/><path d="m31 40h1v13h-1z" fill="#3f3f74"/><path d="m59 40h1v5h-1zm-39 1h1v4h-1z" fill="#9779ff"/><path d="m21 41h1v1h-1z" fill="#d95763"/><path d="m27 41h1v3h-1z" fill="#9779ff"/><path d="m30 41h1v11h-1z" fill="#3f3f74"/><path d="m58 41h1v5h-1zm-37 1h1v4h-1zm5 0h1v3h-1z" fill="#9779ff"/><path d="m29 42h1v9h-1z" fill="#3f3f74"/><path d="m57 42h1v5h-1zm-35 1h1v4h-1zm3 0h1v3h-1z" fill="#9779ff"/><path d="m28 43h1v7h-1z" fill="#3f3f74"/><path d="m23 44h2v4h-2z" fill="#9779ff"/><path d="m27 44h1v5h-1z" fill="#3f3f74"/><path d="m56 44h1v4h-1z" fill="#9779ff"/><path d="m26 45h1v3h-1z" fill="#3f3f74"/><path d="m55 45h1v4h-1z" fill="#9779ff"/><path d="m25 46h1v1h-1z" fill="#3f3f74"/><path d="m54 46h1v4h-1zm-29 1h1v3h-1zm28 0h1v4h-1zm-29 1h1v1h-1zm2 0h1v3h-1zm26 0h1v4h-1zm-25 1h1v3h-1zm24 0h1v4h-1zm-23 1h1v3h-1zm1 1h1v3h-1zm20 0h2v3h-2zm-19 1h1v3h-1zm18 0h1v4h-1zm-17 1h1v3h-1zm16 0h1v4h-1zm-15 1h1v3h-1zm14 0h1v4h-1zm3 0h1v1h-1zm-16 1h1v3h-1zm12 0h1v4h-1zm-11 1h1v3h-1zm10 0h1v4h-1zm-9 1h1v3h-1zm7 0h2v3h-2zm-6 1h1v3h-1zm5 0h1v3h-1zm-4 1h2v2h-2zm3 0h1v3h-1zm-1 1h1v2h-1zm3 0h1v1h-1zm-4 1h1v1h-1z" fill="#9779ff"/></g><g id="_2">><path d="m2 1h6v3h-6z" fill="#9779ff"/><path d="m21 1h6v2h-6zm8 0h2v12h-2zm10 0h2v12h-2zm6 0h6v2h-6zm8 0h2v12h-2zm6 0h2v2h-2z" fill="#d95763"/><path d="m1 2h1v1h-1zm7 0h2v3h-2zm2 1h1v6h-1z" fill="#9779ff"/><path d="m19 3h2v8h-2zm24 0h2v8h-2zm14 0h2v2h-2z" fill="#d95763"/><path d="m7 4h1v1h-1zm4 0h1v3h-1zm-2 1h1v5h-1z" fill="#9779ff"/><path d="m55 5h2v4h-2z" fill="#d95763"/><path d="m8 6h1v5h-1zm-1 2h1v10h-1zm-1 1h1v8h-1z" fill="#9779ff"/><path d="m57 9h2v2h-2z" fill="#d95763"/><path d="m5 10h1v6h-1z" fill="#9779ff"/><path d="m21 11h6v2h-6zm10 0h6v2h-6zm14 0h6v2h-6zm14 0h2v2h-2z" fill="#d95763"/><path d="m31 14h5v3h-5zm-23 1h6v3h-6zm20 0h3v3h-3zm8 0h3v3h-3zm-22 1h3v3h-3zm11 0h3v3h-3zm14 0h1v4h-1zm-22 1h2v3h-2zm6 0h2v3h-2zm8 0h1v1h-1z" fill="#9779ff"/><path d="m32 17h4v13h-4z" fill="#3f3f74"/><path d="m40 17h2v3h-2zm-27 1h1v1h-1zm6 0h1v7h-1zm2 0h2v6h-2z" fill="#9779ff"/><path d="m28 18h4v8h-4zm8 0h2v13h-2z" fill="#3f3f74"/><path d="m38 18h1v1h-1zm4 0h1v4h-1zm-26 1h1v1h-1zm4 0h1v5h-1z" fill="#9779ff"/><path d="m25 19h3v4h-3zm13 0h1v11h-1z" fill="#3f3f74"/><path d="m43 19h1v4h-1zm-25 1h1v8h-1zm5 0h1v6h-1z" fill="#9779ff"/><path d="m24 20h1v2h-1zm15 0h2v8h-2z" fill="#3f3f74"/><path d="m41 20h1v1h-1zm3 0h1v7h-1z" fill="#9779ff"/><path d="m41 21h1v6h-1z" fill="#3f3f74"/><path d="m45 21h1v5h-1z" fill="#9779ff"/><path d="m16 22h1v3h-1z" fill="#d95763"/><path d="m24 22h1v5h-1z" fill="#9779ff"/><path d="m42 22h1v4h-1z" fill="#3f3f74"/><path d="m46 22h1v3h-1z" fill="#9779ff"/><path d="m15 23h1v1h-1zm2 0h1v1h-1z" fill="#d95763"/><path d="m25 23h1v5h-1z" fill="#9779ff"/><path d="m26 23h2v1h-2zm17 0h1v2h-1z" fill="#3f3f74"/><path d="m47 23h1v3h-1zm-30 1h1v8h-1z" fill="#9779ff"/><path d="m20 24h2v17h-2z" fill="#d95763"/><path d="m22 24h1v1h-1zm4 0h1v5h-1z" fill="#9779ff"/><path d="m27 24h1v1h-1z" fill="#3f3f74"/><path d="m48 24h1v3h-1zm-32 1h1v15h-1z" fill="#9779ff"/><path d="m19 25h1v14h-1zm3 0h1v18h-1z" fill="#d95763"/><path d="m27 25h1v5h-1zm16 0h1v3h-1z" fill="#9779ff"/><path d="m46 25h1v29h-1z" fill="#3f3f74"/><path d="m49 25h1v3h-1z" fill="#9779ff"/><path d="m23 26h1v18h-1z" fill="#d95763"/><path d="m28 26h1v5h-1z" fill="#9779ff"/><path d="m29 26h3v1h-3z" fill="#3f3f74"/><path d="m42 26h1v3h-1z" fill="#9779ff"/><path d="m45 26h1v29h-1zm2 0h1v27h-1z" fill="#3f3f74"/><path d="m50 26h1v3h-1z" fill="#9779ff"/><path d="m14 27h1v3h-1zm10 0h1v17h-1z" fill="#d95763"/><path d="m29 27h1v5h-1z" fill="#9779ff"/><path d="m30 27h2v1h-2z" fill="#3f3f74"/><path d="m41 27h1v3h-1z" fill="#9779ff"/><path d="m44 27h1v29h-1zm4 0h1v25h-1z" fill="#3f3f74"/><path d="m51 27h1v3h-1z" fill="#9779ff"/><path d="m13 28h1v1h-1zm2 0h1v1h-1zm3 0h1v10h-1zm7 0h1v15h-1z" fill="#d95763"/><path d="m30 28h1v5h-1z" fill="#9779ff"/><path d="m31 28h1v1h-1zm8 0h1v1h-1z" fill="#3f3f74"/><path d="m40 28h1v3h-1z" fill="#9779ff"/><path d="m43 28h1v29h-1zm6 0h1v23h-1z" fill="#3f3f74"/><path d="m52 28h1v3h-1zm-37 1h1v10h-1z" fill="#9779ff"/><path d="m26 29h1v13h-1z" fill="#d95763"/><path d="m31 29h1v5h-1zm8 0h1v3h-1z" fill="#9779ff"/><path d="m42 29h1v28h-1zm8 0h1v22h-1z" fill="#3f3f74"/><path d="m53 29h1v3h-1z" fill="#9779ff"/><path d="m27 30h1v11h-1z" fill="#d95763"/><path d="m32 30h1v5h-1z" fill="#9779ff"/><path d="m33 30h3v1h-3z" fill="#3f3f74"/><path d="m38 30h1v3h-1z" fill="#9779ff"/><path d="m41 30h1v28h-1zm10 0h1v19h-1z" fill="#3f3f74"/><path d="m54 30h1v3h-1zm-40 1h1v5h-1z" fill="#9779ff"/><path d="m28 31h1v9h-1z" fill="#d95763"/><path d="m33 31h1v7h-1z" fill="#9779ff"/><path d="m34 31h3v1h-3z" fill="#3f3f74"/><path d="m37 31h1v3h-1z" fill="#9779ff"/><path d="m40 31h1v28h-1zm12 0h1v17h-1z" fill="#3f3f74"/><path d="m55 31h1v3h-1z" fill="#9779ff"/><path d="m17 32h1v4h-1zm12 0h1v7h-1z" fill="#d95763"/><path d="m34 32h1v5h-1z" fill="#9779ff"/><path d="m35 32h1v1h-1z" fill="#3f3f74"/><path d="m36 32h1v3h-1z" fill="#9779ff"/><path d="m39 32h1v28h-1zm14 0h1v15h-1z" fill="#3f3f74"/><path d="m56 32h1v3h-1z" fill="#9779ff"/><path d="m30 33h1v5h-1z" fill="#d95763"/><path d="m35 33h1v3h-1z" fill="#9779ff"/><path d="m38 33h1v26h-1zm16 0h1v13h-1z" fill="#3f3f74"/><path d="m57 33h1v3h-1z" fill="#9779ff"/><path d="m31 34h1v3h-1z" fill="#d95763"/><path d="m37 34h1v25h-1zm18 0h1v11h-1z" fill="#3f3f74"/><path d="m58 34h1v3h-1z" fill="#9779ff"/><path d="m13 35h1v3h-1zm19 0h1v1h-1z" fill="#d95763"/><path d="m36 35h1v23h-1zm20 0h1v9h-1z" fill="#3f3f74"/><path d="m59 35h1v4h-1z" fill="#9779ff"/><path d="m12 36h1v1h-1zm2 0h1v1h-1z" fill="#d95763"/><path d="m17 36h1v5h-1zm15 0h1v3h-1z" fill="#9779ff"/><path d="m35 36h1v21h-1zm22 0h1v6h-1z" fill="#3f3f74"/><path d="m60 36h1v7h-1zm-29 1h1v3h-1z" fill="#9779ff"/><path d="m34 37h1v19h-1zm24 0h1v4h-1z" fill="#3f3f74"/><path d="m18 38h1v4h-1zm12 0h1v3h-1z" fill="#9779ff"/><path d="m33 38h1v17h-1z" fill="#3f3f74"/><path d="m61 38h1v3h-1zm-42 1h1v5h-1zm10 0h1v3h-1z" fill="#9779ff"/><path d="m32 39h1v15h-1zm27 0h1v1h-1z" fill="#3f3f74"/><path d="m28 40h1v3h-1z" fill="#9779ff"/><path d="m31 40h1v13h-1z" fill="#3f3f74"/><path d="m59 40h1v5h-1z" fill="#9779ff"/><path d="m17 41h1v3h-1z" fill="#d95763"/><path d="m20 41h1v4h-1z" fill="#9779ff"/><path d="m21 41h1v1h-1z" fill="#d95763"/><path d="m27 41h1v3h-1z" fill="#9779ff"/><path d="m30 41h1v11h-1z" fill="#3f3f74"/><path d="m58 41h1v5h-1z" fill="#9779ff"/><path d="m16 42h1v1h-1zm2 0h1v1h-1z" fill="#d95763"/><path d="m21 42h1v4h-1zm5 0h1v3h-1z" fill="#9779ff"/><path d="m29 42h1v9h-1z" fill="#3f3f74"/><path d="m57 42h1v5h-1zm-35 1h1v4h-1zm3 0h1v3h-1z" fill="#9779ff"/><path d="m28 43h1v7h-1z" fill="#3f3f74"/><path d="m23 44h2v4h-2z" fill="#9779ff"/><path d="m27 44h1v5h-1z" fill="#3f3f74"/><path d="m56 44h1v4h-1z" fill="#9779ff"/><path d="m26 45h1v3h-1z" fill="#3f3f74"/><path d="m55 45h1v4h-1z" fill="#9779ff"/><path d="m25 46h1v1h-1z" fill="#3f3f74"/><path d="m54 46h1v4h-1zm-29 1h1v3h-1zm28 0h1v4h-1zm-29 1h1v1h-1zm2 0h1v3h-1zm26 0h1v4h-1zm-25 1h1v3h-1zm24 0h1v4h-1zm-23 1h1v3h-1zm1 1h1v3h-1zm20 0h2v3h-2zm-19 1h1v3h-1zm18 0h1v4h-1zm-17 1h1v3h-1zm16 0h1v4h-1zm-15 1h1v3h-1zm14 0h1v4h-1zm3 0h1v1h-1zm-16 1h1v3h-1zm12 0h1v4h-1zm-11 1h1v3h-1zm10 0h1v4h-1zm-9 1h1v3h-1zm7 0h2v3h-2zm-6 1h1v3h-1zm5 0h1v3h-1zm-4 1h2v2h-2zm3 0h1v3h-1zm-1 1h1v2h-1zm3 0h1v1h-1zm-4 1h1v1h-1z" fill="#9779ff"/></g><g id="_3">><path d="m2 1h6v3h-6z" fill="#9779ff"/><path d="m21 1h6v2h-6zm8 0h2v12h-2zm10 0h2v12h-2zm6 0h6v2h-6zm8 0h2v12h-2zm6 0h2v2h-2z" fill="#d95763"/><path d="m1 2h1v1h-1zm7 0h2v3h-2zm2 1h1v6h-1z" fill="#9779ff"/><path d="m19 3h2v8h-2zm24 0h2v8h-2zm14 0h2v2h-2z" fill="#d95763"/><path d="m7 4h1v1h-1zm4 0h1v3h-1zm-2 1h1v5h-1z" fill="#9779ff"/><path d="m55 5h2v4h-2z" fill="#d95763"/><path d="m8 6h1v5h-1zm-1 2h1v10h-1zm-1 1h1v8h-1z" fill="#9779ff"/><path d="m57 9h2v2h-2z" fill="#d95763"/><path d="m5 10h1v6h-1z" fill="#9779ff"/><path d="m21 11h6v2h-6zm10 0h6v2h-6zm14 0h6v2h-6zm14 0h2v2h-2z" fill="#d95763"/><path d="m31 14h5v3h-5zm-23 1h6v3h-6zm20 0h3v3h-3zm8 0h3v3h-3zm-22 1h3v3h-3zm11 0h3v3h-3zm14 0h1v4h-1zm-22 1h2v3h-2zm6 0h2v3h-2zm8 0h1v1h-1z" fill="#9779ff"/><path d="m32 17h4v13h-4z" fill="#3f3f74"/><path d="m40 17h2v3h-2zm-27 1h1v1h-1zm6 0h1v7h-1zm2 0h2v6h-2z" fill="#9779ff"/><path d="m28 18h4v8h-4zm8 0h2v13h-2z" fill="#3f3f74"/><path d="m38 18h1v1h-1zm4 0h1v4h-1zm-26 1h1v1h-1zm4 0h1v5h-1z" fill="#9779ff"/><path d="m25 19h3v4h-3zm13 0h1v11h-1z" fill="#3f3f74"/><path d="m43 19h1v4h-1zm-25 1h1v8h-1zm5 0h1v6h-1z" fill="#9779ff"/><path d="m24 20h1v2h-1zm15 0h2v8h-2z" fill="#3f3f74"/><path d="m41 20h1v1h-1zm3 0h1v7h-1z" fill="#9779ff"/><path d="m41 21h1v6h-1z" fill="#3f3f74"/><path d="m45 21h1v5h-1z" fill="#9779ff"/><path d="m16 22h1v3h-1z" fill="#d95763"/><path d="m24 22h1v5h-1z" fill="#9779ff"/><path d="m42 22h1v4h-1z" fill="#3f3f74"/><path d="m46 22h1v3h-1z" fill="#9779ff"/><path d="m15 23h1v1h-1zm2 0h1v1h-1z" fill="#d95763"/><path d="m25 23h1v5h-1z" fill="#9779ff"/><path d="m26 23h2v1h-2zm17 0h1v2h-1z" fill="#3f3f74"/><path d="m47 23h1v3h-1z" fill="#9779ff"/><path d="m8 24h1v3h-1z" fill="#d95763"/><path d="m17 24h1v8h-1z" fill="#9779ff"/><path d="m20 24h2v17h-2z" fill="#d95763"/><path d="m22 24h1v1h-1zm4 0h1v5h-1z" fill="#9779ff"/><path d="m27 24h1v1h-1z" fill="#3f3f74"/><path d="m48 24h1v3h-1z" fill="#9779ff"/><path d="m7 25h1v1h-1zm2 0h1v1h-1z" fill="#d95763"/><path d="m16 25h1v15h-1z" fill="#9779ff"/><path d="m19 25h1v14h-1zm3 0h1v18h-1z" fill="#d95763"/><path d="m27 25h1v5h-1zm16 0h1v3h-1z" fill="#9779ff"/><path d="m46 25h1v29h-1z" fill="#3f3f74"/><path d="m49 25h1v3h-1z" fill="#9779ff"/><path d="m23 26h1v18h-1z" fill="#d95763"/><path d="m28 26h1v5h-1z" fill="#9779ff"/><path d="m29 26h3v1h-3z" fill="#3f3f74"/><path d="m42 26h1v3h-1z" fill="#9779ff"/><path d="m45 26h1v29h-1zm2 0h1v27h-1z" fill="#3f3f74"/><path d="m50 26h1v3h-1z" fill="#9779ff"/><path d="m14 27h1v3h-1zm10 0h1v17h-1z" fill="#d95763"/><path d="m29 27h1v5h-1z" fill="#9779ff"/><path d="m30 27h2v1h-2z" fill="#3f3f74"/><path d="m41 27h1v3h-1z" fill="#9779ff"/><path d="m44 27h1v29h-1zm4 0h1v25h-1z" fill="#3f3f74"/><path d="m51 27h1v3h-1z" fill="#9779ff"/><path d="m13 28h1v1h-1zm2 0h1v1h-1zm3 0h1v10h-1zm7 0h1v15h-1z" fill="#d95763"/><path d="m30 28h1v5h-1z" fill="#9779ff"/><path d="m31 28h1v1h-1zm8 0h1v1h-1z" fill="#3f3f74"/><path d="m40 28h1v3h-1z" fill="#9779ff"/><path d="m43 28h1v29h-1zm6 0h1v23h-1z" fill="#3f3f74"/><path d="m52 28h1v3h-1zm-37 1h1v10h-1z" fill="#9779ff"/><path d="m26 29h1v13h-1z" fill="#d95763"/><path d="m31 29h1v5h-1zm8 0h1v3h-1z" fill="#9779ff"/><path d="m42 29h1v28h-1zm8 0h1v22h-1z" fill="#3f3f74"/><path d="m53 29h1v3h-1z" fill="#9779ff"/><path d="m27 30h1v11h-1z" fill="#d95763"/><path d="m32 30h1v5h-1z" fill="#9779ff"/><path d="m33 30h3v1h-3z" fill="#3f3f74"/><path d="m38 30h1v3h-1z" fill="#9779ff"/><path d="m41 30h1v28h-1zm10 0h1v19h-1z" fill="#3f3f74"/><path d="m54 30h1v3h-1z" fill="#9779ff"/><path d="m7 31h1v3h-1z" fill="#d95763"/><path d="m14 31h1v5h-1z" fill="#9779ff"/><path d="m28 31h1v9h-1z" fill="#d95763"/><path d="m33 31h1v7h-1z" fill="#9779ff"/><path d="m34 31h3v1h-3z" fill="#3f3f74"/><path d="m37 31h1v3h-1z" fill="#9779ff"/><path d="m40 31h1v28h-1zm12 0h1v17h-1z" fill="#3f3f74"/><path d="m55 31h1v3h-1z" fill="#9779ff"/><path d="m6 32h1v1h-1zm2 0h1v1h-1zm9 0h1v4h-1zm12 0h1v7h-1z" fill="#d95763"/><path d="m34 32h1v5h-1z" fill="#9779ff"/><path d="m35 32h1v1h-1z" fill="#3f3f74"/><path d="m36 32h1v3h-1z" fill="#9779ff"/><path d="m39 32h1v28h-1zm14 0h1v15h-1z" fill="#3f3f74"/><path d="m56 32h1v3h-1z" fill="#9779ff"/><path d="m30 33h1v5h-1z" fill="#d95763"/><path d="m35 33h1v3h-1z" fill="#9779ff"/><path d="m38 33h1v26h-1zm16 0h1v13h-1z" fill="#3f3f74"/><path d="m57 33h1v3h-1z" fill="#9779ff"/><path d="m31 34h1v3h-1z" fill="#d95763"/><path d="m37 34h1v25h-1zm18 0h1v11h-1z" fill="#3f3f74"/><path d="m58 34h1v3h-1z" fill="#9779ff"/><path d="m13 35h1v3h-1zm19 0h1v1h-1z" fill="#d95763"/><path d="m36 35h1v23h-1zm20 0h1v9h-1z" fill="#3f3f74"/><path d="m59 35h1v4h-1z" fill="#9779ff"/><path d="m12 36h1v1h-1zm2 0h1v1h-1z" fill="#d95763"/><path d="m17 36h1v5h-1zm15 0h1v3h-1z" fill="#9779ff"/><path d="m35 36h1v21h-1zm22 0h1v6h-1z" fill="#3f3f74"/><path d="m60 36h1v7h-1zm-29 1h1v3h-1z" fill="#9779ff"/><path d="m34 37h1v19h-1zm24 0h1v4h-1z" fill="#3f3f74"/><path d="m8 38h1v3h-1z" fill="#d95763"/><path d="m18 38h1v4h-1zm12 0h1v3h-1z" fill="#9779ff"/><path d="m33 38h1v17h-1z" fill="#3f3f74"/><path d="m61 38h1v3h-1z" fill="#9779ff"/><path d="m7 39h1v1h-1zm2 0h1v1h-1z" fill="#d95763"/><path d="m19 39h1v5h-1zm10 0h1v3h-1z" fill="#9779ff"/><path d="m32 39h1v15h-1zm27 0h1v1h-1z" fill="#3f3f74"/><path d="m28 40h1v3h-1z" fill="#9779ff"/><path d="m31 40h1v13h-1z" fill="#3f3f74"/><path d="m59 40h1v5h-1z" fill="#9779ff"/><path d="m17 41h1v3h-1z" fill="#d95763"/><path d="m20 41h1v4h-1z" fill="#9779ff"/><path d="m21 41h1v1h-1z" fill="#d95763"/><path d="m27 41h1v3h-1z" fill="#9779ff"/><path d="m30 41h1v11h-1z" fill="#3f3f74"/><path d="m58 41h1v5h-1z" fill="#9779ff"/><path d="m16 42h1v1h-1zm2 0h1v1h-1z" fill="#d95763"/><path d="m21 42h1v4h-1zm5 0h1v3h-1z" fill="#9779ff"/><path d="m29 42h1v9h-1z" fill="#3f3f74"/><path d="m57 42h1v5h-1zm-35 1h1v4h-1zm3 0h1v3h-1z" fill="#9779ff"/><path d="m28 43h1v7h-1z" fill="#3f3f74"/><path d="m23 44h2v4h-2z" fill="#9779ff"/><path d="m27 44h1v5h-1z" fill="#3f3f74"/><path d="m56 44h1v4h-1z" fill="#9779ff"/><path d="m14 45h1v3h-1z" fill="#d95763"/><path d="m26 45h1v3h-1z" fill="#3f3f74"/><path d="m55 45h1v4h-1z" fill="#9779ff"/><path d="m13 46h1v1h-1zm2 0h1v1h-1z" fill="#d95763"/><path d="m25 46h1v1h-1z" fill="#3f3f74"/><path d="m54 46h1v4h-1zm-29 1h1v3h-1zm28 0h1v4h-1zm-29 1h1v1h-1zm2 0h1v3h-1zm26 0h1v4h-1zm-25 1h1v3h-1zm24 0h1v4h-1zm-23 1h1v3h-1zm1 1h1v3h-1zm20 0h2v3h-2zm-19 1h1v3h-1zm18 0h1v4h-1zm-17 1h1v3h-1zm16 0h1v4h-1zm-15 1h1v3h-1zm14 0h1v4h-1zm3 0h1v1h-1zm-16 1h1v3h-1zm12 0h1v4h-1zm-11 1h1v3h-1zm10 0h1v4h-1zm-9 1h1v3h-1zm7 0h2v3h-2zm-6 1h1v3h-1zm5 0h1v3h-1zm-4 1h2v2h-2zm3 0h1v3h-1zm-1 1h1v2h-1zm3 0h1v1h-1zm-4 1h1v1h-1z" fill="#9779ff"/></g><g id="_4">><path d="m2 1h6v3h-6z" fill="#9779ff"/><path d="m21 1h6v2h-6zm8 0h2v12h-2zm10 0h2v12h-2zm6 0h6v2h-6zm8 0h2v12h-2zm6 0h2v2h-2z" fill="#d95763"/><path d="m1 2h1v1h-1zm7 0h2v3h-2zm2 1h1v6h-1z" fill="#9779ff"/><path d="m19 3h2v8h-2zm24 0h2v8h-2zm14 0h2v2h-2z" fill="#d95763"/><path d="m7 4h1v1h-1zm4 0h1v3h-1zm-2 1h1v5h-1z" fill="#9779ff"/><path d="m55 5h2v4h-2z" fill="#d95763"/><path d="m8 6h1v5h-1zm-1 2h1v10h-1zm-1 1h1v8h-1z" fill="#9779ff"/><path d="m57 9h2v2h-2z" fill="#d95763"/><path d="m5 10h1v6h-1z" fill="#9779ff"/><path d="m21 11h6v2h-6zm10 0h6v2h-6zm14 0h6v2h-6zm14 0h2v2h-2z" fill="#d95763"/><path d="m31 14h5v3h-5zm-23 1h6v3h-6zm20 0h3v3h-3zm8 0h3v3h-3zm-22 1h3v3h-3zm11 0h3v3h-3zm14 0h1v4h-1zm-22 1h2v3h-2zm6 0h2v3h-2zm8 0h1v1h-1z" fill="#9779ff"/><path d="m32 17h4v13h-4z" fill="#3f3f74"/><path d="m40 17h2v3h-2zm-27 1h1v1h-1zm6 0h1v7h-1zm2 0h2v6h-2z" fill="#9779ff"/><path d="m28 18h4v8h-4zm8 0h2v13h-2z" fill="#3f3f74"/><path d="m38 18h1v1h-1zm4 0h1v4h-1zm-26 1h1v1h-1zm4 0h1v5h-1z" fill="#9779ff"/><path d="m25 19h3v4h-3zm13 0h1v11h-1z" fill="#3f3f74"/><path d="m43 19h1v4h-1zm-25 1h1v8h-1zm5 0h1v6h-1z" fill="#9779ff"/><path d="m24 20h1v2h-1zm15 0h2v8h-2z" fill="#3f3f74"/><path d="m41 20h1v1h-1zm3 0h1v7h-1z" fill="#9779ff"/><path d="m41 21h1v6h-1z" fill="#3f3f74"/><path d="m45 21h1v5h-1z" fill="#9779ff"/><path d="m16 22h1v3h-1z" fill="#d95763"/><path d="m24 22h1v5h-1z" fill="#9779ff"/><path d="m42 22h1v4h-1z" fill="#3f3f74"/><path d="m46 22h1v3h-1z" fill="#9779ff"/><path d="m15 23h1v1h-1zm2 0h1v1h-1z" fill="#d95763"/><path d="m25 23h1v5h-1z" fill="#9779ff"/><path d="m26 23h2v1h-2zm17 0h1v2h-1z" fill="#3f3f74"/><path d="m47 23h1v3h-1z" fill="#9779ff"/><path d="m8 24h1v3h-1z" fill="#d95763"/><path d="m17 24h1v8h-1z" fill="#9779ff"/><path d="m20 24h2v17h-2z" fill="#d95763"/><path d="m22 24h1v1h-1zm4 0h1v5h-1z" fill="#9779ff"/><path d="m27 24h1v1h-1z" fill="#3f3f74"/><path d="m48 24h1v3h-1z" fill="#9779ff"/><path d="m7 25h1v1h-1zm2 0h1v1h-1z" fill="#d95763"/><path d="m16 25h1v15h-1z" fill="#9779ff"/><path d="m19 25h1v14h-1zm3 0h1v18h-1z" fill="#d95763"/><path d="m27 25h1v5h-1zm16 0h1v3h-1z" fill="#9779ff"/><path d="m46 25h1v29h-1z" fill="#3f3f74"/><path d="m49 25h1v3h-1z" fill="#9779ff"/><path d="m23 26h1v18h-1z" fill="#d95763"/><path d="m28 26h1v5h-1z" fill="#9779ff"/><path d="m29 26h3v1h-3z" fill="#3f3f74"/><path d="m42 26h1v3h-1z" fill="#9779ff"/><path d="m45 26h1v29h-1zm2 0h1v27h-1z" fill="#3f3f74"/><path d="m50 26h1v3h-1z" fill="#9779ff"/><path d="m14 27h1v3h-1zm10 0h1v17h-1z" fill="#d95763"/><path d="m29 27h1v5h-1z" fill="#9779ff"/><path d="m30 27h2v1h-2z" fill="#3f3f74"/><path d="m41 27h1v3h-1z" fill="#9779ff"/><path d="m44 27h1v29h-1zm4 0h1v25h-1z" fill="#3f3f74"/><path d="m51 27h1v3h-1z" fill="#9779ff"/><path d="m2 28h1v3h-1zm11 0h1v1h-1zm2 0h1v1h-1zm3 0h1v10h-1zm7 0h1v15h-1z" fill="#d95763"/><path d="m30 28h1v5h-1z" fill="#9779ff"/><path d="m31 28h1v1h-1zm8 0h1v1h-1z" fill="#3f3f74"/><path d="m40 28h1v3h-1z" fill="#9779ff"/><path d="m43 28h1v29h-1zm6 0h1v23h-1z" fill="#3f3f74"/><path d="m52 28h1v3h-1z" fill="#9779ff"/><path d="m1 29h1v1h-1zm2 0h1v1h-1z" fill="#d95763"/><path d="m15 29h1v10h-1z" fill="#9779ff"/><path d="m26 29h1v13h-1z" fill="#d95763"/><path d="m31 29h1v5h-1zm8 0h1v3h-1z" fill="#9779ff"/><path d="m42 29h1v28h-1zm8 0h1v22h-1z" fill="#3f3f74"/><path d="m53 29h1v3h-1z" fill="#9779ff"/><path d="m27 30h1v11h-1z" fill="#d95763"/><path d="m32 30h1v5h-1z" fill="#9779ff"/><path d="m33 30h3v1h-3z" fill="#3f3f74"/><path d="m38 30h1v3h-1z" fill="#9779ff"/><path d="m41 30h1v28h-1zm10 0h1v19h-1z" fill="#3f3f74"/><path d="m54 30h1v3h-1z" fill="#9779ff"/><path d="m7 31h1v3h-1z" fill="#d95763"/><path d="m14 31h1v5h-1z" fill="#9779ff"/><path d="m28 31h1v9h-1z" fill="#d95763"/><path d="m33 31h1v7h-1z" fill="#9779ff"/><path d="m34 31h3v1h-3z" fill="#3f3f74"/><path d="m37 31h1v3h-1z" fill="#9779ff"/><path d="m40 31h1v28h-1zm12 0h1v17h-1z" fill="#3f3f74"/><path d="m55 31h1v3h-1z" fill="#9779ff"/><path d="m6 32h1v1h-1zm2 0h1v1h-1zm9 0h1v4h-1zm12 0h1v7h-1z" fill="#d95763"/><path d="m34 32h1v5h-1z" fill="#9779ff"/><path d="m35 32h1v1h-1z" fill="#3f3f74"/><path d="m36 32h1v3h-1z" fill="#9779ff"/><path d="m39 32h1v28h-1zm14 0h1v15h-1z" fill="#3f3f74"/><path d="m56 32h1v3h-1z" fill="#9779ff"/><path d="m30 33h1v5h-1z" fill="#d95763"/><path d="m35 33h1v3h-1z" fill="#9779ff"/><path d="m38 33h1v26h-1zm16 0h1v13h-1z" fill="#3f3f74"/><path d="m57 33h1v3h-1z" fill="#9779ff"/><path d="m31 34h1v3h-1z" fill="#d95763"/><path d="m37 34h1v25h-1zm18 0h1v11h-1z" fill="#3f3f74"/><path d="m58 34h1v3h-1z" fill="#9779ff"/><path d="m13 35h1v3h-1zm19 0h1v1h-1z" fill="#d95763"/><path d="m36 35h1v23h-1zm20 0h1v9h-1z" fill="#3f3f74"/><path d="m59 35h1v4h-1z" fill="#9779ff"/><path d="m12 36h1v1h-1zm2 0h1v1h-1z" fill="#d95763"/><path d="m17 36h1v5h-1zm15 0h1v3h-1z" fill="#9779ff"/><path d="m35 36h1v21h-1zm22 0h1v6h-1z" fill="#3f3f74"/><path d="m60 36h1v7h-1z" fill="#9779ff"/><path d="m2 37h1v3h-1z" fill="#d95763"/><path d="m31 37h1v3h-1z" fill="#9779ff"/><path d="m34 37h1v19h-1zm24 0h1v4h-1z" fill="#3f3f74"/><path d="m1 38h1v1h-1zm2 0h1v1h-1zm5 0h1v3h-1z" fill="#d95763"/><path d="m18 38h1v4h-1zm12 0h1v3h-1z" fill="#9779ff"/><path d="m33 38h1v17h-1z" fill="#3f3f74"/><path d="m61 38h1v3h-1z" fill="#9779ff"/><path d="m7 39h1v1h-1zm2 0h1v1h-1z" fill="#d95763"/><path d="m19 39h1v5h-1zm10 0h1v3h-1z" fill="#9779ff"/><path d="m32 39h1v15h-1zm27 0h1v1h-1z" fill="#3f3f74"/><path d="m28 40h1v3h-1z" fill="#9779ff"/><path d="m31 40h1v13h-1z" fill="#3f3f74"/><path d="m59 40h1v5h-1z" fill="#9779ff"/><path d="m17 41h1v3h-1z" fill="#d95763"/><path d="m20 41h1v4h-1z" fill="#9779ff"/><path d="m21 41h1v1h-1z" fill="#d95763"/><path d="m27 41h1v3h-1z" fill="#9779ff"/><path d="m30 41h1v11h-1z" fill="#3f3f74"/><path d="m58 41h1v5h-1z" fill="#9779ff"/><path d="m16 42h1v1h-1zm2 0h1v1h-1z" fill="#d95763"/><path d="m21 42h1v4h-1zm5 0h1v3h-1z" fill="#9779ff"/><path d="m29 42h1v9h-1z" fill="#3f3f74"/><path d="m57 42h1v5h-1zm-35 1h1v4h-1zm3 0h1v3h-1z" fill="#9779ff"/><path d="m28 43h1v7h-1z" fill="#3f3f74"/><path d="m23 44h2v4h-2z" fill="#9779ff"/><path d="m27 44h1v5h-1z" fill="#3f3f74"/><path d="m56 44h1v4h-1z" fill="#9779ff"/><path d="m14 45h1v3h-1z" fill="#d95763"/><path d="m26 45h1v3h-1z" fill="#3f3f74"/><path d="m55 45h1v4h-1z" fill="#9779ff"/><path d="m7 46h1v3h-1zm6 0h1v1h-1zm2 0h1v1h-1z" fill="#d95763"/><path d="m25 46h1v1h-1z" fill="#3f3f74"/><path d="m54 46h1v4h-1z" fill="#9779ff"/><path d="m6 47h1v1h-1zm2 0h1v1h-1z" fill="#d95763"/><path d="m25 47h1v3h-1zm28 0h1v4h-1zm-29 1h1v1h-1zm2 0h1v3h-1zm26 0h1v4h-1zm-25 1h1v3h-1zm24 0h1v4h-1zm-23 1h1v3h-1zm1 1h1v3h-1zm20 0h2v3h-2z" fill="#9779ff"/><path d="m15 52h1v3h-1z" fill="#d95763"/><path d="m30 52h1v3h-1zm18 0h1v4h-1z" fill="#9779ff"/><path d="m14 53h1v1h-1zm2 0h1v1h-1z" fill="#d95763"/><path d="m31 53h1v3h-1zm16 0h1v4h-1zm-15 1h1v3h-1zm14 0h1v4h-1zm3 0h1v1h-1zm-16 1h1v3h-1zm12 0h1v4h-1zm-11 1h1v3h-1zm10 0h1v4h-1zm-9 1h1v3h-1zm7 0h2v3h-2zm-6 1h1v3h-1zm5 0h1v3h-1zm-4 1h2v2h-2zm3 0h1v3h-1zm-1 1h1v2h-1zm3 0h1v1h-1zm-4 1h1v1h-1z" fill="#9779ff"/></g><g id="_5">><path d="m2 1h6v3h-6z" fill="#9779ff"/><path d="m21 1h6v2h-6zm8 0h2v12h-2zm10 0h2v12h-2zm6 0h6v2h-6zm8 0h2v12h-2zm6 0h2v2h-2z" fill="#d95763"/><path d="m1 2h1v1h-1zm7 0h2v3h-2zm2 1h1v6h-1z" fill="#9779ff"/><path d="m19 3h2v8h-2zm24 0h2v8h-2zm14 0h2v2h-2z" fill="#d95763"/><path d="m7 4h1v1h-1zm4 0h1v3h-1zm-2 1h1v5h-1z" fill="#9779ff"/><path d="m55 5h2v4h-2z" fill="#d95763"/><path d="m8 6h1v5h-1zm-1 2h1v10h-1zm-1 1h1v8h-1z" fill="#9779ff"/><path d="m57 9h2v2h-2z" fill="#d95763"/><path d="m5 10h1v6h-1z" fill="#9779ff"/><path d="m21 11h6v2h-6zm10 0h6v2h-6zm14 0h6v2h-6zm14 0h2v2h-2z" fill="#d95763"/><path d="m31 14h5v3h-5zm-23 1h6v3h-6zm20 0h3v3h-3zm8 0h3v3h-3zm-22 1h3v3h-3zm11 0h3v3h-3zm14 0h1v4h-1zm-22 1h2v3h-2zm6 0h2v3h-2zm8 0h1v1h-1z" fill="#9779ff"/><path d="m32 17h4v13h-4z" fill="#3f3f74"/><path d="m40 17h2v3h-2zm-27 1h1v1h-1zm6 0h1v7h-1zm2 0h2v6h-2z" fill="#9779ff"/><path d="m28 18h4v8h-4zm8 0h2v13h-2z" fill="#3f3f74"/><path d="m38 18h1v1h-1zm4 0h1v4h-1zm-26 1h1v1h-1zm4 0h1v5h-1z" fill="#9779ff"/><path d="m25 19h3v4h-3zm13 0h1v11h-1z" fill="#3f3f74"/><path d="m43 19h1v4h-1zm-25 1h1v8h-1zm5 0h1v6h-1z" fill="#9779ff"/><path d="m24 20h1v2h-1zm15 0h2v8h-2z" fill="#3f3f74"/><path d="m41 20h1v1h-1zm3 0h1v7h-1z" fill="#9779ff"/><path d="m41 21h1v6h-1z" fill="#3f3f74"/><path d="m45 21h1v5h-1z" fill="#9779ff"/><path d="m16 22h1v3h-1z" fill="#d95763"/><path d="m24 22h1v5h-1z" fill="#9779ff"/><path d="m42 22h1v4h-1z" fill="#3f3f74"/><path d="m46 22h1v3h-1z" fill="#9779ff"/><path d="m15 23h1v1h-1zm2 0h1v1h-1z" fill="#d95763"/><path d="m25 23h1v5h-1z" fill="#9779ff"/><path d="m26 23h2v1h-2zm17 0h1v2h-1z" fill="#3f3f74"/><path d="m47 23h1v3h-1z" fill="#9779ff"/><path d="m8 24h1v3h-1z" fill="#d95763"/><path d="m17 24h1v8h-1z" fill="#9779ff"/><path d="m20 24h2v17h-2z" fill="#d95763"/><path d="m22 24h1v1h-1zm4 0h1v5h-1z" fill="#9779ff"/><path d="m27 24h1v1h-1z" fill="#3f3f74"/><path d="m48 24h1v3h-1z" fill="#9779ff"/><path d="m7 25h1v1h-1zm2 0h1v1h-1z" fill="#d95763"/><path d="m16 25h1v15h-1z" fill="#9779ff"/><path d="m19 25h1v14h-1zm3 0h1v18h-1z" fill="#d95763"/><path d="m27 25h1v5h-1zm16 0h1v3h-1z" fill="#9779ff"/><path d="m46 25h1v29h-1z" fill="#3f3f74"/><path d="m49 25h1v3h-1z" fill="#9779ff"/><path d="m23 26h1v18h-1z" fill="#d95763"/><path d="m28 26h1v5h-1z" fill="#9779ff"/><path d="m29 26h3v1h-3z" fill="#3f3f74"/><path d="m42 26h1v3h-1z" fill="#9779ff"/><path d="m45 26h1v29h-1zm2 0h1v27h-1z" fill="#3f3f74"/><path d="m50 26h1v3h-1z" fill="#9779ff"/><path d="m14 27h1v3h-1zm10 0h1v17h-1z" fill="#d95763"/><path d="m29 27h1v5h-1z" fill="#9779ff"/><path d="m30 27h2v1h-2z" fill="#3f3f74"/><path d="m41 27h1v3h-1z" fill="#9779ff"/><path d="m44 27h1v29h-1zm4 0h1v25h-1z" fill="#3f3f74"/><path d="m51 27h1v3h-1z" fill="#9779ff"/><path d="m2 28h1v3h-1zm11 0h1v1h-1zm2 0h1v1h-1zm3 0h1v10h-1zm7 0h1v15h-1z" fill="#d95763"/><path d="m30 28h1v5h-1z" fill="#9779ff"/><path d="m31 28h1v1h-1zm8 0h1v1h-1z" fill="#3f3f74"/><path d="m40 28h1v3h-1z" fill="#9779ff"/><path d="m43 28h1v29h-1zm6 0h1v23h-1z" fill="#3f3f74"/><path d="m52 28h1v3h-1z" fill="#9779ff"/><path d="m1 29h1v1h-1zm2 0h1v1h-1z" fill="#d95763"/><path d="m15 29h1v10h-1z" fill="#9779ff"/><path d="m26 29h1v13h-1z" fill="#d95763"/><path d="m31 29h1v5h-1zm8 0h1v3h-1z" fill="#9779ff"/><path d="m42 29h1v28h-1zm8 0h1v22h-1z" fill="#3f3f74"/><path d="m53 29h1v3h-1z" fill="#9779ff"/><path d="m27 30h1v11h-1z" fill="#d95763"/><path d="m32 30h1v5h-1z" fill="#9779ff"/><path d="m33 30h3v1h-3z" fill="#3f3f74"/><path d="m38 30h1v3h-1z" fill="#9779ff"/><path d="m41 30h1v28h-1zm10 0h1v19h-1z" fill="#3f3f74"/><path d="m54 30h1v3h-1z" fill="#9779ff"/><path d="m7 31h1v3h-1z" fill="#d95763"/><path d="m14 31h1v5h-1z" fill="#9779ff"/><path d="m28 31h1v9h-1z" fill="#d95763"/><path d="m33 31h1v7h-1z" fill="#9779ff"/><path d="m34 31h3v1h-3z" fill="#3f3f74"/><path d="m37 31h1v3h-1z" fill="#9779ff"/><path d="m40 31h1v28h-1zm12 0h1v17h-1z" fill="#3f3f74"/><path d="m55 31h1v3h-1z" fill="#9779ff"/><path d="m6 32h1v1h-1zm2 0h1v1h-1zm9 0h1v4h-1zm12 0h1v7h-1z" fill="#d95763"/><path d="m34 32h1v5h-1z" fill="#9779ff"/><path d="m35 32h1v1h-1z" fill="#3f3f74"/><path d="m36 32h1v3h-1z" fill="#9779ff"/><path d="m39 32h1v28h-1zm14 0h1v15h-1z" fill="#3f3f74"/><path d="m56 32h1v3h-1z" fill="#9779ff"/><path d="m30 33h1v5h-1z" fill="#d95763"/><path d="m35 33h1v3h-1z" fill="#9779ff"/><path d="m38 33h1v26h-1zm16 0h1v13h-1z" fill="#3f3f74"/><path d="m57 33h1v3h-1z" fill="#9779ff"/><path d="m31 34h1v3h-1z" fill="#d95763"/><path d="m37 34h1v25h-1zm18 0h1v11h-1z" fill="#3f3f74"/><path d="m58 34h1v3h-1z" fill="#9779ff"/><path d="m13 35h1v3h-1zm19 0h1v1h-1z" fill="#d95763"/><path d="m36 35h1v23h-1zm20 0h1v9h-1z" fill="#3f3f74"/><path d="m59 35h1v4h-1z" fill="#9779ff"/><path d="m12 36h1v1h-1zm2 0h1v1h-1z" fill="#d95763"/><path d="m17 36h1v5h-1zm15 0h1v3h-1z" fill="#9779ff"/><path d="m35 36h1v21h-1zm22 0h1v6h-1z" fill="#3f3f74"/><path d="m60 36h1v7h-1z" fill="#9779ff"/><path d="m2 37h1v3h-1z" fill="#d95763"/><path d="m31 37h1v3h-1z" fill="#9779ff"/><path d="m34 37h1v19h-1zm24 0h1v4h-1z" fill="#3f3f74"/><path d="m1 38h1v1h-1zm2 0h1v1h-1zm5 0h1v3h-1z" fill="#d95763"/><path d="m18 38h1v4h-1zm12 0h1v3h-1z" fill="#9779ff"/><path d="m33 38h1v17h-1z" fill="#3f3f74"/><path d="m61 38h1v3h-1z" fill="#9779ff"/><path d="m7 39h1v1h-1zm2 0h1v1h-1z" fill="#d95763"/><path d="m19 39h1v5h-1zm10 0h1v3h-1z" fill="#9779ff"/><path d="m32 39h1v15h-1zm27 0h1v1h-1z" fill="#3f3f74"/><path d="m28 40h1v3h-1z" fill="#9779ff"/><path d="m31 40h1v13h-1z" fill="#3f3f74"/><path d="m59 40h1v5h-1z" fill="#9779ff"/><path d="m17 41h1v3h-1z" fill="#d95763"/><path d="m20 41h1v4h-1z" fill="#9779ff"/><path d="m21 41h1v1h-1z" fill="#d95763"/><path d="m27 41h1v3h-1z" fill="#9779ff"/><path d="m30 41h1v11h-1z" fill="#3f3f74"/><path d="m58 41h1v5h-1z" fill="#9779ff"/><path d="m16 42h1v1h-1zm2 0h1v1h-1z" fill="#d95763"/><path d="m21 42h1v4h-1zm5 0h1v3h-1z" fill="#9779ff"/><path d="m29 42h1v9h-1z" fill="#3f3f74"/><path d="m57 42h1v5h-1zm-35 1h1v4h-1zm3 0h1v3h-1z" fill="#9779ff"/><path d="m28 43h1v7h-1z" fill="#3f3f74"/><path d="m23 44h2v4h-2z" fill="#9779ff"/><path d="m27 44h1v5h-1z" fill="#3f3f74"/><path d="m56 44h1v4h-1z" fill="#9779ff"/><path d="m14 45h1v3h-1z" fill="#d95763"/><path d="m26 45h1v3h-1z" fill="#3f3f74"/><path d="m55 45h1v4h-1z" fill="#9779ff"/><path d="m7 46h1v3h-1zm6 0h1v1h-1zm2 0h1v1h-1z" fill="#d95763"/><path d="m25 46h1v1h-1z" fill="#3f3f74"/><path d="m54 46h1v4h-1z" fill="#9779ff"/><path d="m6 47h1v1h-1zm2 0h1v1h-1z" fill="#d95763"/><path d="m25 47h1v3h-1zm28 0h1v4h-1zm-29 1h1v1h-1zm2 0h1v3h-1zm26 0h1v4h-1zm-25 1h1v3h-1zm24 0h1v4h-1zm-23 1h1v3h-1zm1 1h1v3h-1zm20 0h2v3h-2z" fill="#9779ff"/><path d="m15 52h1v3h-1z" fill="#d95763"/><path d="m30 52h1v3h-1zm18 0h1v4h-1z" fill="#9779ff"/><path d="m14 53h1v1h-1zm2 0h1v1h-1z" fill="#d95763"/><path d="m31 53h1v3h-1zm16 0h1v4h-1zm-15 1h1v3h-1zm14 0h1v4h-1zm3 0h1v1h-1zm-16 1h1v3h-1zm12 0h1v4h-1zm-11 1h1v3h-1zm10 0h1v4h-1zm-9 1h1v3h-1zm7 0h2v3h-2zm-6 1h1v3h-1zm5 0h1v3h-1zm-4 1h2v2h-2zm3 0h1v3h-1zm-1 1h1v2h-1zm3 0h1v1h-1zm-4 1h1v1h-1z" fill="#9779ff"/></g><g id="_6">><path d="m2 1h6v3h-6z" fill="#9779ff"/><path d="m21 1h6v2h-6zm8 0h2v12h-2zm10 0h2v12h-2zm6 0h6v2h-6zm8 0h2v12h-2zm6 0h2v2h-2z" fill="#d95763"/><path d="m1 2h1v1h-1zm7 0h2v3h-2zm2 1h1v6h-1z" fill="#9779ff"/><path d="m19 3h2v8h-2zm24 0h2v8h-2zm14 0h2v2h-2z" fill="#d95763"/><path d="m7 4h1v1h-1zm4 0h1v3h-1zm-2 1h1v5h-1z" fill="#9779ff"/><path d="m55 5h2v4h-2z" fill="#d95763"/><path d="m8 6h1v5h-1zm-1 2h1v10h-1zm-1 1h1v8h-1z" fill="#9779ff"/><path d="m57 9h2v2h-2z" fill="#d95763"/><path d="m5 10h1v6h-1z" fill="#9779ff"/><path d="m21 11h6v2h-6zm10 0h6v2h-6zm14 0h6v2h-6zm14 0h2v2h-2z" fill="#d95763"/><path d="m31 14h5v3h-5zm-23 1h6v3h-6zm20 0h3v3h-3zm8 0h3v3h-3zm-22 1h3v3h-3zm11 0h3v3h-3zm14 0h1v4h-1zm-22 1h2v3h-2zm6 0h2v3h-2zm8 0h1v1h-1z" fill="#9779ff"/><path d="m32 17h4v13h-4z" fill="#3f3f74"/><path d="m40 17h2v3h-2zm-27 1h1v1h-1zm6 0h1v7h-1zm2 0h2v6h-2z" fill="#9779ff"/><path d="m28 18h4v8h-4zm8 0h2v13h-2z" fill="#3f3f74"/><path d="m38 18h1v1h-1zm4 0h1v4h-1zm-26 1h1v1h-1zm4 0h1v5h-1z" fill="#9779ff"/><path d="m25 19h3v4h-3zm13 0h1v11h-1z" fill="#3f3f74"/><path d="m43 19h1v4h-1zm-25 1h1v8h-1zm5 0h1v6h-1z" fill="#9779ff"/><path d="m24 20h1v2h-1zm15 0h2v8h-2z" fill="#3f3f74"/><path d="m41 20h1v1h-1zm3 0h1v7h-1z" fill="#9779ff"/><path d="m41 21h1v6h-1z" fill="#3f3f74"/><path d="m45 21h1v5h-1z" fill="#9779ff"/><path d="m16 22h1v3h-1z" fill="#d95763"/><path d="m24 22h1v5h-1z" fill="#9779ff"/><path d="m42 22h1v4h-1z" fill="#3f3f74"/><path d="m46 22h1v3h-1z" fill="#9779ff"/><path d="m15 23h1v1h-1zm2 0h1v1h-1z" fill="#d95763"/><path d="m25 23h1v5h-1z" fill="#9779ff"/><path d="m26 23h2v1h-2zm17 0h1v2h-1z" fill="#3f3f74"/><path d="m47 23h1v3h-1z" fill="#9779ff"/><path d="m8 24h1v3h-1z" fill="#d95763"/><path d="m17 24h1v8h-1z" fill="#9779ff"/><path d="m20 24h2v17h-2z" fill="#d95763"/><path d="m22 24h1v1h-1zm4 0h1v5h-1z" fill="#9779ff"/><path d="m27 24h1v1h-1z" fill="#3f3f74"/><path d="m48 24h1v3h-1z" fill="#9779ff"/><path d="m7 25h1v1h-1zm2 0h1v1h-1z" fill="#d95763"/><path d="m16 25h1v15h-1z" fill="#9779ff"/><path d="m19 25h1v14h-1zm3 0h1v18h-1z" fill="#d95763"/><path d="m27 25h1v5h-1zm16 0h1v3h-1z" fill="#9779ff"/><path d="m46 25h1v29h-1z" fill="#3f3f74"/><path d="m49 25h1v3h-1z" fill="#9779ff"/><path d="m23 26h1v18h-1z" fill="#d95763"/><path d="m28 26h1v5h-1z" fill="#9779ff"/><path d="m29 26h3v1h-3z" fill="#3f3f74"/><path d="m42 26h1v3h-1z" fill="#9779ff"/><path d="m45 26h1v29h-1zm2 0h1v27h-1z" fill="#3f3f74"/><path d="m50 26h1v3h-1z" fill="#9779ff"/><path d="m14 27h1v3h-1zm10 0h1v17h-1z" fill="#d95763"/><path d="m29 27h1v5h-1z" fill="#9779ff"/><path d="m30 27h2v1h-2z" fill="#3f3f74"/><path d="m41 27h1v3h-1z" fill="#9779ff"/><path d="m44 27h1v29h-1zm4 0h1v25h-1z" fill="#3f3f74"/><path d="m51 27h1v3h-1z" fill="#9779ff"/><path d="m13 28h1v1h-1zm2 0h1v1h-1zm3 0h1v10h-1zm7 0h1v15h-1z" fill="#d95763"/><path d="m30 28h1v5h-1z" fill="#9779ff"/><path d="m31 28h1v1h-1zm8 0h1v1h-1z" fill="#3f3f74"/><path d="m40 28h1v3h-1z" fill="#9779ff"/><path d="m43 28h1v29h-1zm6 0h1v23h-1z" fill="#3f3f74"/><path d="m52 28h1v3h-1zm-37 1h1v10h-1z" fill="#9779ff"/><path d="m26 29h1v13h-1z" fill="#d95763"/><path d="m31 29h1v5h-1zm8 0h1v3h-1z" fill="#9779ff"/><path d="m42 29h1v28h-1zm8 0h1v22h-1z" fill="#3f3f74"/><path d="m53 29h1v3h-1z" fill="#9779ff"/><path d="m27 30h1v11h-1z" fill="#d95763"/><path d="m32 30h1v5h-1z" fill="#9779ff"/><path d="m33 30h3v1h-3z" fill="#3f3f74"/><path d="m38 30h1v3h-1z" fill="#9779ff"/><path d="m41 30h1v28h-1zm10 0h1v19h-1z" fill="#3f3f74"/><path d="m54 30h1v3h-1z" fill="#9779ff"/><path d="m7 31h1v3h-1z" fill="#d95763"/><path d="m14 31h1v5h-1z" fill="#9779ff"/><path d="m28 31h1v9h-1z" fill="#d95763"/><path d="m33 31h1v7h-1z" fill="#9779ff"/><path d="m34 31h3v1h-3z" fill="#3f3f74"/><path d="m37 31h1v3h-1z" fill="#9779ff"/><path d="m40 31h1v28h-1zm12 0h1v17h-1z" fill="#3f3f74"/><path d="m55 31h1v3h-1z" fill="#9779ff"/><path d="m6 32h1v1h-1zm2 0h1v1h-1zm9 0h1v4h-1zm12 0h1v7h-1z" fill="#d95763"/><path d="m34 32h1v5h-1z" fill="#9779ff"/><path d="m35 32h1v1h-1z" fill="#3f3f74"/><path d="m36 32h1v3h-1z" fill="#9779ff"/><path d="m39 32h1v28h-1zm14 0h1v15h-1z" fill="#3f3f74"/><path d="m56 32h1v3h-1z" fill="#9779ff"/><path d="m30 33h1v5h-1z" fill="#d95763"/><path d="m35 33h1v3h-1z" fill="#9779ff"/><path d="m38 33h1v26h-1zm16 0h1v13h-1z" fill="#3f3f74"/><path d="m57 33h1v3h-1z" fill="#9779ff"/><path d="m31 34h1v3h-1z" fill="#d95763"/><path d="m37 34h1v25h-1zm18 0h1v11h-1z" fill="#3f3f74"/><path d="m58 34h1v3h-1z" fill="#9779ff"/><path d="m13 35h1v3h-1zm19 0h1v1h-1z" fill="#d95763"/><path d="m36 35h1v23h-1zm20 0h1v9h-1z" fill="#3f3f74"/><path d="m59 35h1v4h-1z" fill="#9779ff"/><path d="m12 36h1v1h-1zm2 0h1v1h-1z" fill="#d95763"/><path d="m17 36h1v5h-1zm15 0h1v3h-1z" fill="#9779ff"/><path d="m35 36h1v21h-1zm22 0h1v6h-1z" fill="#3f3f74"/><path d="m60 36h1v7h-1zm-29 1h1v3h-1z" fill="#9779ff"/><path d="m34 37h1v19h-1zm24 0h1v4h-1z" fill="#3f3f74"/><path d="m8 38h1v3h-1z" fill="#d95763"/><path d="m18 38h1v4h-1zm12 0h1v3h-1z" fill="#9779ff"/><path d="m33 38h1v17h-1z" fill="#3f3f74"/><path d="m61 38h1v3h-1z" fill="#9779ff"/><path d="m7 39h1v1h-1zm2 0h1v1h-1z" fill="#d95763"/><path d="m19 39h1v5h-1zm10 0h1v3h-1z" fill="#9779ff"/><path d="m32 39h1v15h-1zm27 0h1v1h-1z" fill="#3f3f74"/><path d="m28 40h1v3h-1z" fill="#9779ff"/><path d="m31 40h1v13h-1z" fill="#3f3f74"/><path d="m59 40h1v5h-1z" fill="#9779ff"/><path d="m17 41h1v3h-1z" fill="#d95763"/><path d="m20 41h1v4h-1z" fill="#9779ff"/><path d="m21 41h1v1h-1z" fill="#d95763"/><path d="m27 41h1v3h-1z" fill="#9779ff"/><path d="m30 41h1v11h-1z" fill="#3f3f74"/><path d="m58 41h1v5h-1z" fill="#9779ff"/><path d="m16 42h1v1h-1zm2 0h1v1h-1z" fill="#d95763"/><path d="m21 42h1v4h-1zm5 0h1v3h-1z" fill="#9779ff"/><path d="m29 42h1v9h-1z" fill="#3f3f74"/><path d="m57 42h1v5h-1zm-35 1h1v4h-1zm3 0h1v3h-1z" fill="#9779ff"/><path d="m28 43h1v7h-1z" fill="#3f3f74"/><path d="m23 44h2v4h-2z" fill="#9779ff"/><path d="m27 44h1v5h-1z" fill="#3f3f74"/><path d="m56 44h1v4h-1z" fill="#9779ff"/><path d="m14 45h1v3h-1z" fill="#d95763"/><path d="m26 45h1v3h-1z" fill="#3f3f74"/><path d="m55 45h1v4h-1z" fill="#9779ff"/><path d="m13 46h1v1h-1zm2 0h1v1h-1z" fill="#d95763"/><path d="m25 46h1v1h-1z" fill="#3f3f74"/><path d="m54 46h1v4h-1zm-29 1h1v3h-1zm28 0h1v4h-1zm-29 1h1v1h-1zm2 0h1v3h-1zm26 0h1v4h-1zm-25 1h1v3h-1zm24 0h1v4h-1zm-23 1h1v3h-1zm1 1h1v3h-1zm20 0h2v3h-2zm-19 1h1v3h-1zm18 0h1v4h-1zm-17 1h1v3h-1zm16 0h1v4h-1zm-15 1h1v3h-1zm14 0h1v4h-1zm3 0h1v1h-1zm-16 1h1v3h-1zm12 0h1v4h-1zm-11 1h1v3h-1zm10 0h1v4h-1zm-9 1h1v3h-1zm7 0h2v3h-2zm-6 1h1v3h-1zm5 0h1v3h-1zm-4 1h2v2h-2zm3 0h1v3h-1zm-1 1h1v2h-1zm3 0h1v1h-1zm-4 1h1v1h-1z" fill="#9779ff"/></g><g id="_7">><path d="m2 1h6v3h-6z" fill="#9779ff"/><path d="m21 1h6v2h-6zm8 0h2v12h-2zm10 0h2v12h-2zm6 0h6v2h-6zm8 0h2v12h-2zm6 0h2v2h-2z" fill="#d95763"/><path d="m1 2h1v1h-1zm7 0h2v3h-2zm2 1h1v6h-1z" fill="#9779ff"/><path d="m19 3h2v8h-2zm24 0h2v8h-2zm14 0h2v2h-2z" fill="#d95763"/><path d="m7 4h1v1h-1zm4 0h1v3h-1zm-2 1h1v5h-1z" fill="#9779ff"/><path d="m55 5h2v4h-2z" fill="#d95763"/><path d="m8 6h1v5h-1zm-1 2h1v10h-1zm-1 1h1v8h-1z" fill="#9779ff"/><path d="m57 9h2v2h-2z" fill="#d95763"/><path d="m5 10h1v6h-1z" fill="#9779ff"/><path d="m21 11h6v2h-6zm10 0h6v2h-6zm14 0h6v2h-6zm14 0h2v2h-2z" fill="#d95763"/><path d="m31 14h5v3h-5zm-23 1h6v3h-6zm20 0h3v3h-3zm8 0h3v3h-3zm-22 1h3v3h-3zm11 0h3v3h-3zm14 0h1v4h-1zm-22 1h2v3h-2zm6 0h2v3h-2zm8 0h1v1h-1z" fill="#9779ff"/><path d="m32 17h4v13h-4z" fill="#3f3f74"/><path d="m40 17h2v3h-2zm-27 1h1v1h-1zm6 0h1v7h-1zm2 0h2v6h-2z" fill="#9779ff"/><path d="m28 18h4v8h-4zm8 0h2v13h-2z" fill="#3f3f74"/><path d="m38 18h1v1h-1zm4 0h1v4h-1zm-26 1h1v1h-1zm4 0h1v5h-1z" fill="#9779ff"/><path d="m25 19h3v4h-3zm13 0h1v11h-1z" fill="#3f3f74"/><path d="m43 19h1v4h-1zm-25 1h1v8h-1zm5 0h1v6h-1z" fill="#9779ff"/><path d="m24 20h1v2h-1zm15 0h2v8h-2z" fill="#3f3f74"/><path d="m41 20h1v1h-1zm3 0h1v7h-1z" fill="#9779ff"/><path d="m41 21h1v6h-1z" fill="#3f3f74"/><path d="m45 21h1v5h-1z" fill="#9779ff"/><path d="m16 22h1v3h-1z" fill="#d95763"/><path d="m24 22h1v5h-1z" fill="#9779ff"/><path d="m42 22h1v4h-1z" fill="#3f3f74"/><path d="m46 22h1v3h-1z" fill="#9779ff"/><path d="m15 23h1v1h-1zm2 0h1v1h-1z" fill="#d95763"/><path d="m25 23h1v5h-1z" fill="#9779ff"/><path d="m26 23h2v1h-2zm17 0h1v2h-1z" fill="#3f3f74"/><path d="m47 23h1v3h-1zm-30 1h1v8h-1z" fill="#9779ff"/><path d="m20 24h2v17h-2z" fill="#d95763"/><path d="m22 24h1v1h-1zm4 0h1v5h-1z" fill="#9779ff"/><path d="m27 24h1v1h-1z" fill="#3f3f74"/><path d="m48 24h1v3h-1zm-32 1h1v15h-1z" fill="#9779ff"/><path d="m19 25h1v14h-1zm3 0h1v18h-1z" fill="#d95763"/><path d="m27 25h1v5h-1zm16 0h1v3h-1z" fill="#9779ff"/><path d="m46 25h1v29h-1z" fill="#3f3f74"/><path d="m49 25h1v3h-1z" fill="#9779ff"/><path d="m23 26h1v18h-1z" fill="#d95763"/><path d="m28 26h1v5h-1z" fill="#9779ff"/><path d="m29 26h3v1h-3z" fill="#3f3f74"/><path d="m42 26h1v3h-1z" fill="#9779ff"/><path d="m45 26h1v29h-1zm2 0h1v27h-1z" fill="#3f3f74"/><path d="m50 26h1v3h-1z" fill="#9779ff"/><path d="m14 27h1v3h-1zm10 0h1v17h-1z" fill="#d95763"/><path d="m29 27h1v5h-1z" fill="#9779ff"/><path d="m30 27h2v1h-2z" fill="#3f3f74"/><path d="m41 27h1v3h-1z" fill="#9779ff"/><path d="m44 27h1v29h-1zm4 0h1v25h-1z" fill="#3f3f74"/><path d="m51 27h1v3h-1z" fill="#9779ff"/><path d="m13 28h1v1h-1zm2 0h1v1h-1zm3 0h1v10h-1zm7 0h1v15h-1z" fill="#d95763"/><path d="m30 28h1v5h-1z" fill="#9779ff"/><path d="m31 28h1v1h-1zm8 0h1v1h-1z" fill="#3f3f74"/><path d="m40 28h1v3h-1z" fill="#9779ff"/><path d="m43 28h1v29h-1zm6 0h1v23h-1z" fill="#3f3f74"/><path d="m52 28h1v3h-1zm-37 1h1v10h-1z" fill="#9779ff"/><path d="m26 29h1v13h-1z" fill="#d95763"/><path d="m31 29h1v5h-1zm8 0h1v3h-1z" fill="#9779ff"/><path d="m42 29h1v28h-1zm8 0h1v22h-1z" fill="#3f3f74"/><path d="m53 29h1v3h-1z" fill="#9779ff"/><path d="m27 30h1v11h-1z" fill="#d95763"/><path d="m32 30h1v5h-1z" fill="#9779ff"/><path d="m33 30h3v1h-3z" fill="#3f3f74"/><path d="m38 30h1v3h-1z" fill="#9779ff"/><path d="m41 30h1v28h-1zm10 0h1v19h-1z" fill="#3f3f74"/><path d="m54 30h1v3h-1zm-40 1h1v5h-1z" fill="#9779ff"/><path d="m28 31h1v9h-1z" fill="#d95763"/><path d="m33 31h1v7h-1z" fill="#9779ff"/><path d="m34 31h3v1h-3z" fill="#3f3f74"/><path d="m37 31h1v3h-1z" fill="#9779ff"/><path d="m40 31h1v28h-1zm12 0h1v17h-1z" fill="#3f3f74"/><path d="m55 31h1v3h-1z" fill="#9779ff"/><path d="m17 32h1v4h-1zm12 0h1v7h-1z" fill="#d95763"/><path d="m34 32h1v5h-1z" fill="#9779ff"/><path d="m35 32h1v1h-1z" fill="#3f3f74"/><path d="m36 32h1v3h-1z" fill="#9779ff"/><path d="m39 32h1v28h-1zm14 0h1v15h-1z" fill="#3f3f74"/><path d="m56 32h1v3h-1z" fill="#9779ff"/><path d="m30 33h1v5h-1z" fill="#d95763"/><path d="m35 33h1v3h-1z" fill="#9779ff"/><path d="m38 33h1v26h-1zm16 0h1v13h-1z" fill="#3f3f74"/><path d="m57 33h1v3h-1z" fill="#9779ff"/><path d="m31 34h1v3h-1z" fill="#d95763"/><path d="m37 34h1v25h-1zm18 0h1v11h-1z" fill="#3f3f74"/><path d="m58 34h1v3h-1z" fill="#9779ff"/><path d="m13 35h1v3h-1zm19 0h1v1h-1z" fill="#d95763"/><path d="m36 35h1v23h-1zm20 0h1v9h-1z" fill="#3f3f74"/><path d="m59 35h1v4h-1z" fill="#9779ff"/><path d="m12 36h1v1h-1zm2 0h1v1h-1z" fill="#d95763"/><path d="m17 36h1v5h-1zm15 0h1v3h-1z" fill="#9779ff"/><path d="m35 36h1v21h-1zm22 0h1v6h-1z" fill="#3f3f74"/><path d="m60 36h1v7h-1zm-29 1h1v3h-1z" fill="#9779ff"/><path d="m34 37h1v19h-1zm24 0h1v4h-1z" fill="#3f3f74"/><path d="m18 38h1v4h-1zm12 0h1v3h-1z" fill="#9779ff"/><path d="m33 38h1v17h-1z" fill="#3f3f74"/><path d="m61 38h1v3h-1zm-42 1h1v5h-1zm10 0h1v3h-1z" fill="#9779ff"/><path d="m32 39h1v15h-1zm27 0h1v1h-1z" fill="#3f3f74"/><path d="m28 40h1v3h-1z" fill="#9779ff"/><path d="m31 40h1v13h-1z" fill="#3f3f74"/><path d="m59 40h1v5h-1z" fill="#9779ff"/><path d="m17 41h1v3h-1z" fill="#d95763"/><path d="m20 41h1v4h-1z" fill="#9779ff"/><path d="m21 41h1v1h-1z" fill="#d95763"/><path d="m27 41h1v3h-1z" fill="#9779ff"/><path d="m30 41h1v11h-1z" fill="#3f3f74"/><path d="m58 41h1v5h-1z" fill="#9779ff"/><path d="m16 42h1v1h-1zm2 0h1v1h-1z" fill="#d95763"/><path d="m21 42h1v4h-1zm5 0h1v3h-1z" fill="#9779ff"/><path d="m29 42h1v9h-1z" fill="#3f3f74"/><path d="m57 42h1v5h-1zm-35 1h1v4h-1zm3 0h1v3h-1z" fill="#9779ff"/><path d="m28 43h1v7h-1z" fill="#3f3f74"/><path d="m23 44h2v4h-2z" fill="#9779ff"/><path d="m27 44h1v5h-1z" fill="#3f3f74"/><path d="m56 44h1v4h-1z" fill="#9779ff"/><path d="m26 45h1v3h-1z" fill="#3f3f74"/><path d="m55 45h1v4h-1z" fill="#9779ff"/><path d="m25 46h1v1h-1z" fill="#3f3f74"/><path d="m54 46h1v4h-1zm-29 1h1v3h-1zm28 0h1v4h-1zm-29 1h1v1h-1zm2 0h1v3h-1zm26 0h1v4h-1zm-25 1h1v3h-1zm24 0h1v4h-1zm-23 1h1v3h-1zm1 1h1v3h-1zm20 0h2v3h-2zm-19 1h1v3h-1zm18 0h1v4h-1zm-17 1h1v3h-1zm16 0h1v4h-1zm-15 1h1v3h-1zm14 0h1v4h-1zm3 0h1v1h-1zm-16 1h1v3h-1zm12 0h1v4h-1zm-11 1h1v3h-1zm10 0h1v4h-1zm-9 1h1v3h-1zm7 0h2v3h-2zm-6 1h1v3h-1zm5 0h1v3h-1zm-4 1h2v2h-2zm3 0h1v3h-1zm-1 1h1v2h-1zm3 0h1v1h-1zm-4 1h1v1h-1z" fill="#9779ff"/></g><g id="_8">><path d="m2 1h6v3h-6z" fill="#9779ff"/><path d="m21 1h6v2h-6zm8 0h2v12h-2zm10 0h2v12h-2zm6 0h6v2h-6zm8 0h2v12h-2zm6 0h2v2h-2z" fill="#d95763"/><path d="m1 2h1v1h-1zm7 0h2v3h-2zm2 1h1v6h-1z" fill="#9779ff"/><path d="m19 3h2v8h-2zm24 0h2v8h-2zm14 0h2v2h-2z" fill="#d95763"/><path d="m7 4h1v1h-1zm4 0h1v3h-1zm-2 1h1v5h-1z" fill="#9779ff"/><path d="m55 5h2v4h-2z" fill="#d95763"/><path d="m8 6h1v5h-1zm-1 2h1v10h-1zm-1 1h1v8h-1z" fill="#9779ff"/><path d="m57 9h2v2h-2z" fill="#d95763"/><path d="m5 10h1v6h-1z" fill="#9779ff"/><path d="m21 11h6v2h-6zm10 0h6v2h-6zm14 0h6v2h-6zm14 0h2v2h-2z" fill="#d95763"/><path d="m31 14h5v3h-5zm-23 1h6v3h-6zm20 0h3v3h-3zm8 0h3v3h-3zm-22 1h3v3h-3zm11 0h3v3h-3zm14 0h1v4h-1zm-22 1h2v3h-2zm6 0h2v3h-2zm8 0h1v1h-1z" fill="#9779ff"/><path d="m32 17h4v13h-4z" fill="#3f3f74"/><path d="m40 17h2v3h-2zm-27 1h1v1h-1zm6 0h1v7h-1zm2 0h2v6h-2z" fill="#9779ff"/><path d="m28 18h4v8h-4zm8 0h2v13h-2z" fill="#3f3f74"/><path d="m38 18h1v1h-1zm4 0h1v4h-1zm-26 1h1v1h-1zm4 0h1v5h-1z" fill="#9779ff"/><path d="m25 19h3v4h-3zm13 0h1v11h-1z" fill="#3f3f74"/><path d="m43 19h1v4h-1zm-25 1h1v8h-1zm5 0h1v6h-1z" fill="#9779ff"/><path d="m24 20h1v2h-1zm15 0h2v8h-2z" fill="#3f3f74"/><path d="m41 20h1v1h-1zm3 0h1v7h-1z" fill="#9779ff"/><path d="m41 21h1v6h-1z" fill="#3f3f74"/><path d="m45 21h1v5h-1zm-21 1h1v5h-1z" fill="#9779ff"/><path d="m42 22h1v4h-1z" fill="#3f3f74"/><path d="m46 22h1v3h-1zm-29 1h1v9h-1zm8 0h1v5h-1z" fill="#9779ff"/><path d="m26 23h2v1h-2zm17 0h1v2h-1z" fill="#3f3f74"/><path d="m47 23h1v3h-1z" fill="#9779ff"/><path d="m20 24h2v17h-2z" fill="#d95763"/><path d="m22 24h1v1h-1zm4 0h1v5h-1z" fill="#9779ff"/><path d="m27 24h1v1h-1z" fill="#3f3f74"/><path d="m48 24h1v3h-1zm-32 1h1v15h-1z" fill="#9779ff"/><path d="m19 25h1v14h-1zm3 0h1v18h-1z" fill="#d95763"/><path d="m27 25h1v5h-1zm16 0h1v3h-1z" fill="#9779ff"/><path d="m46 25h1v29h-1z" fill="#3f3f74"/><path d="m49 25h1v3h-1z" fill="#9779ff"/><path d="m23 26h1v18h-1z" fill="#d95763"/><path d="m28 26h1v5h-1z" fill="#9779ff"/><path d="m29 26h3v1h-3z" fill="#3f3f74"/><path d="m42 26h1v3h-1z" fill="#9779ff"/><path d="m45 26h1v29h-1zm2 0h1v27h-1z" fill="#3f3f74"/><path d="m50 26h1v3h-1z" fill="#9779ff"/><path d="m24 27h1v17h-1z" fill="#d95763"/><path d="m29 27h1v5h-1z" fill="#9779ff"/><path d="m30 27h2v1h-2z" fill="#3f3f74"/><path d="m41 27h1v3h-1z" fill="#9779ff"/><path d="m44 27h1v29h-1zm4 0h1v25h-1z" fill="#3f3f74"/><path d="m51 27h1v3h-1zm-36 1h1v11h-1z" fill="#9779ff"/><path d="m18 28h1v10h-1zm7 0h1v15h-1z" fill="#d95763"/><path d="m30 28h1v5h-1z" fill="#9779ff"/><path d="m31 28h1v1h-1zm8 0h1v1h-1z" fill="#3f3f74"/><path d="m40 28h1v3h-1z" fill="#9779ff"/><path d="m43 28h1v29h-1zm6 0h1v23h-1z" fill="#3f3f74"/><path d="m52 28h1v3h-1z" fill="#9779ff"/><path d="m26 29h1v13h-1z" fill="#d95763"/><path d="m31 29h1v5h-1zm8 0h1v3h-1z" fill="#9779ff"/><path d="m42 29h1v28h-1zm8 0h1v22h-1z" fill="#3f3f74"/><path d="m53 29h1v3h-1z" fill="#9779ff"/><path d="m27 30h1v11h-1z" fill="#d95763"/><path d="m32 30h1v5h-1z" fill="#9779ff"/><path d="m33 30h3v1h-3z" fill="#3f3f74"/><path d="m38 30h1v3h-1z" fill="#9779ff"/><path d="m41 30h1v28h-1zm10 0h1v19h-1z" fill="#3f3f74"/><path d="m54 30h1v3h-1zm-40 1h1v5h-1z" fill="#9779ff"/><path d="m28 31h1v9h-1z" fill="#d95763"/><path d="m33 31h1v7h-1z" fill="#9779ff"/><path d="m34 31h3v1h-3z" fill="#3f3f74"/><path d="m37 31h1v3h-1z" fill="#9779ff"/><path d="m40 31h1v28h-1zm12 0h1v17h-1z" fill="#3f3f74"/><path d="m55 31h1v3h-1z" fill="#9779ff"/><path d="m17 32h1v4h-1zm12 0h1v7h-1z" fill="#d95763"/><path d="m34 32h1v5h-1z" fill="#9779ff"/><path d="m35 32h1v1h-1z" fill="#3f3f74"/><path d="m36 32h1v3h-1z" fill="#9779ff"/><path d="m39 32h1v28h-1zm14 0h1v15h-1z" fill="#3f3f74"/><path d="m56 32h1v3h-1z" fill="#9779ff"/><path d="m30 33h1v5h-1z" fill="#d95763"/><path d="m35 33h1v3h-1z" fill="#9779ff"/><path d="m38 33h1v26h-1zm16 0h1v13h-1z" fill="#3f3f74"/><path d="m57 33h1v3h-1z" fill="#9779ff"/><path d="m31 34h1v3h-1z" fill="#d95763"/><path d="m37 34h1v25h-1zm18 0h1v11h-1z" fill="#3f3f74"/><path d="m58 34h1v3h-1z" fill="#9779ff"/><path d="m32 35h1v1h-1z" fill="#d95763"/><path d="m36 35h1v23h-1zm20 0h1v9h-1z" fill="#3f3f74"/><path d="m59 35h1v4h-1zm-42 1h1v6h-1zm15 0h1v3h-1z" fill="#9779ff"/><path d="m35 36h1v21h-1zm22 0h1v6h-1z" fill="#3f3f74"/><path d="m60 36h1v7h-1zm-29 1h1v3h-1z" fill="#9779ff"/><path d="m34 37h1v19h-1zm24 0h1v4h-1z" fill="#3f3f74"/><path d="m18 38h1v5h-1zm12 0h1v3h-1z" fill="#9779ff"/><path d="m33 38h1v17h-1z" fill="#3f3f74"/><path d="m61 38h1v3h-1zm-42 1h1v5h-1zm10 0h1v3h-1z" fill="#9779ff"/><path d="m32 39h1v15h-1zm27 0h1v1h-1z" fill="#3f3f74"/><path d="m28 40h1v3h-1z" fill="#9779ff"/><path d="m31 40h1v13h-1z" fill="#3f3f74"/><path d="m59 40h1v5h-1zm-39 1h1v4h-1z" fill="#9779ff"/><path d="m21 41h1v1h-1z" fill="#d95763"/><path d="m27 41h1v3h-1z" fill="#9779ff"/><path d="m30 41h1v11h-1z" fill="#3f3f74"/><path d="m58 41h1v5h-1zm-37 1h1v4h-1zm5 0h1v3h-1z" fill="#9779ff"/><path d="m29 42h1v9h-1z" fill="#3f3f74"/><path d="m57 42h1v5h-1zm-35 1h1v4h-1zm3 0h1v3h-1z" fill="#9779ff"/><path d="m28 43h1v7h-1z" fill="#3f3f74"/><path d="m23 44h2v4h-2z" fill="#9779ff"/><path d="m27 44h1v5h-1z" fill="#3f3f74"/><path d="m56 44h1v4h-1z" fill="#9779ff"/><path d="m26 45h1v3h-1z" fill="#3f3f74"/><path d="m55 45h1v4h-1z" fill="#9779ff"/><path d="m25 46h1v1h-1z" fill="#3f3f74"/><path d="m54 46h1v4h-1zm-29 1h1v3h-1zm28 0h1v4h-1zm-29 1h1v1h-1zm2 0h1v3h-1zm26 0h1v4h-1zm-25 1h1v3h-1zm24 0h1v4h-1zm-23 1h1v3h-1zm1 1h1v3h-1zm20 0h2v3h-2zm-19 1h1v3h-1zm18 0h1v4h-1zm-17 1h1v3h-1zm16 0h1v4h-1zm-15 1h1v3h-1zm14 0h1v4h-1zm3 0h1v1h-1zm-16 1h1v3h-1zm12 0h1v4h-1zm-11 1h1v3h-1zm10 0h1v4h-1zm-9 1h1v3h-1zm7 0h2v3h-2zm-6 1h1v3h-1zm5 0h1v3h-1zm-4 1h2v2h-2zm3 0h1v3h-1zm-1 1h1v2h-1zm3 0h1v1h-1zm-4 1h1v1h-1z" fill="#9779ff"/></g><defs><style type="text/css">#_0,#_1,#_2,#_3,#_4,#_5,#_6,#_7,#_8{animation:0.9s linear _k infinite}#_0{animation-delay:0s}#_1{animation-delay:0.1s}#_2{animation-delay:0.2s}#_3{animation-delay:0.3s}#_4{animation-delay:0.4s}#_5{animation-delay:0.5s}#_6{animation-delay:0.6s}#_7{animation-delay:0.7s}#_8{animation-delay:0.8s}@keyframes _k{0%,11.111111%{visibility:visible}11.111222%,100%{visibility:hidden}}#_{visibility:hidden}</style></defs></svg>