<?xml version="1.0" encoding="UTF-8" ?>
<svg xmlns="http://www.w3.org/2000/svg"
     width="100%"
     viewBox="0 0 128 64"
     shape-rendering="geometricPrecision">
    <path d="M34 4h15v2H34zM32 5h2v3h-2zM49 5h9v2h-9zM30 6h2v3h-2zM34 6h3v1h-3zM39 6h10v1H39zM58 6h4v3h-4zM28 7h2v3h-2zM34 7h1v1h-1zM54 7h4v1h-4zM62 7h5v2h-5zM72 7h11v2H72zM26 8h2v3h-2zM32 8h1v1h-1zM57 8h1v1h-1zM67 8h5v1h-5zM83 8h2v1h-2zM25 9h1v4h-1zM30 9h1v1h-1zM60 9h6v1h-6zM84 9h2v1h-2zM24 10h1v3h-1zM28 10h1v1h-1zM66 10h2v1h-2zM85 10h2v1h-2zM22 11h2v3h-2zM26 11h1v1h-1zM68 11h7v1h-7zM86 11h2v1h-2zM20 12h2v3h-2zM75 12h10v1H75zM87 12h2v3h-2zM19 13h1v4h-1zM85 13h2v1h-2zM89 13h1v4h-1zM18 14h1v3h-1zM90 14h4v4h-4zM17 15h1v3h-1zM94 15h3v1h-3zM14 16h3v2h-3zM97 16h3v1h-3zM9 17h5v3H9zM94 17h3v1h-3zM100 17h4v1h-4zM6 18h3v2H6zM14 18h2v1h-2zM24 18h1v1h-1zM97 18h2v1h-2zM104 18h3v1h-3zM3 19h3v2H3zM25 19h7v3h-7zM99 19h3v1h-3zM105 19h3v1h-3zM2 20h1v2H2zM6 20h2v1H6zM32 20h2v9h-2zM102 20h2v1h-2zM106 20h3v1h-3zM1 21h1v1H1zM3 21h1v1H3zM24 21h1v2h-1zM34 21h5v7h-5zM107 21h3v1h-3zM0 22h1v1H0zM23 22h1v2h-1zM25 22h1v1h-1zM28 22h4v3h-4zM39 22h2v1h-2zM108 22h2v2h-2zM22 23h1v1h-1zM26 23h2v3h-2zM39 23h1v1h-1zM41 23h1v1h-1zM81 23h1v1h-1zM110 23h1v2h-1zM24 24h2v3h-2zM42 24h1v1h-1zM65 24h1v1h-1zM80 24h1v1h-1zM82 24h1v1h-1zM108 24h1v1h-1zM111 24h1v2h-1zM21 25h3v3h-3zM28 25h1v1h-1zM39 25h2v9h-2zM43 25h1v1h-1zM66 25h3v2h-3zM78 25h2v12h-2zM81 25h1v8h-1zM90 25h1v3h-1zM112 25h1v2h-1zM19 26h2v4h-2zM31 26h1v3h-1zM41 26h1v8h-1zM44 26h1v1h-1zM69 26h1v4h-1zM77 26h1v11h-1zM80 26h1v12h-1zM82 26h8v4h-8zM91 26h2v2h-2zM113 26h1v1h-1zM18 27h1v3h-1zM24 27h1v1h-1zM30 27h1v3h-1zM42 27h1v6h-1zM67 27h2v1h-2zM70 27h1v4h-1zM75 27h2v8h-2zM93 27h9v2h-9zM114 27h1v1h-1zM17 28h1v3h-1zM21 28h2v1h-2zM29 28h1v3h-1zM36 28h3v8h-3zM43 28h1v5h-1zM68 28h1v1h-1zM71 28h4v4h-4zM102 28h1v3h-1zM115 28h1v1h-1zM16 29h1v1h-1zM28 29h1v1h-1zM34 29h2v10h-2zM44 29h1v4h-1zM90 29h2v3h-2zM97 29h5v1h-5zM103 29h1v4h-1zM116 29h1v1h-1zM33 30h1v11h-1zM45 30h1v4h-1zM82 30h5v3h-5zM88 30h2v1h-2zM92 30h2v2h-2zM101 30h1v1h-1zM104 30h1v7h-1zM107 30h1v1h-1zM117 30h1v2h-1zM32 31h1v2h-1zM46 31h1v5h-1zM57 31h1v11h-1zM87 31h1v2h-1zM94 31h2v2h-2zM105 31h1v8h-1zM108 31h1v1h-1zM118 31h1v3h-1zM47 32h1v5h-1zM53 32h1v4h-1zM72 32h3v1h-3zM88 32h1v2h-1zM93 32h1v1h-1zM96 32h1v2h-1zM106 32h2v8h-2zM109 32h1v1h-1zM119 32h1v4h-1zM31 33h1v1h-1zM48 33h1v5h-1zM52 33h1v2h-1zM54 33h1v4h-1zM58 33h1v2h-1zM71 33h1v3h-1zM73 33h2v1h-2zM82 33h4v1h-4zM89 33h1v4h-1zM97 33h1v4h-1zM108 33h1v8h-1zM110 33h1v1h-1zM30 34h1v1h-1zM32 34h1v8h-1zM39 34h1v1h-1zM55 34h1v8h-1zM74 34h1v1h-1zM81 34h1v5h-1zM83 34h4v1h-4zM90 34h1v5h-1zM109 34h1v2h-1zM111 34h1v1h-1zM120 34h1v3h-1zM29 35h1v1h-1zM49 35h1v4h-1zM56 35h1v7h-1zM59 35h1v7h-1zM70 35h1v1h-1zM72 35h2v1h-2zM76 35h1v1h-1zM82 35h1v4h-1zM84 35h4v1h-4zM91 35h1v3h-1zM98 35h1v4h-1zM110 35h1v1h-1zM112 35h1v1h-1zM31 36h1v7h-1zM36 36h2v1h-2zM50 36h1v4h-1zM58 36h1v6h-1zM60 36h1v6h-1zM74 36h2v1h-2zM85 36h4v1h-4zM111 36h1v1h-1zM113 36h1v4h-1zM121 36h1v2h-1zM30 37h1v7h-1zM36 37h1v1h-1zM51 37h1v4h-1zM61 37h1v5h-1zM79 37h1v1h-1zM83 37h1v1h-1zM86 37h3v1h-3zM92 37h1v2h-1zM99 37h1v3h-1zM112 37h1v2h-1zM122 37h1v2h-1zM29 38h1v8h-1zM52 38h3v3h-3zM62 38h6v4h-6zM84 38h1v2h-1zM87 38h2v1h-2zM93 38h1v2h-1zM109 38h1v4h-1zM28 39h1v8h-1zM34 39h1v1h-1zM68 39h1v4h-1zM83 39h1v1h-1zM85 39h2v1h-2zM88 39h2v1h-2zM91 39h1v4h-1zM94 39h2v2h-2zM100 39h1v2h-1zM114 39h1v2h-1zM123 39h1v2h-1zM27 40h1v9h-1zM69 40h1v4h-1zM85 40h1v1h-1zM87 40h1v1h-1zM96 40h1v4h-1zM101 40h1v2h-1zM110 40h1v4h-1zM115 40h1v2h-1zM26 41h1v9h-1zM70 41h1v3h-1zM81 41h4v1h-4zM86 41h1v1h-1zM88 41h2v1h-2zM95 41h1v1h-1zM97 41h1v4h-1zM102 41h1v2h-1zM116 41h7v1h-7zM24 42h2v9h-2zM66 42h2v1h-2zM71 42h2v3h-2zM85 42h1v1h-1zM87 42h1v1h-1zM89 42h2v1h-2zM103 42h1v4h-1zM111 42h1v8h-1zM117 42h5v1h-5zM23 43h1v10h-1zM73 43h2v3h-2zM86 43h1v1h-1zM88 43h1v1h-1zM92 43h1v1h-1zM98 43h1v4h-1zM22 44h1v10h-1zM75 44h2v3h-2zM85 44h1v1h-1zM93 44h1v2h-1zM104 44h1v4h-1zM21 45h1v5h-1zM77 45h1v3h-1zM84 45h1v1h-1zM99 45h1v2h-1zM78 46h2v3h-2zM83 46h1v1h-1zM87 46h3v1h-3zM94 46h1v4h-1zM100 46h1v7h-1zM20 47h1v4h-1zM76 47h1v1h-1zM80 47h1v8h-1zM86 47h1v1h-1zM90 47h1v1h-1zM101 47h1v8h-1zM105 47h1v4h-1zM19 48h1v4h-1zM81 48h1v4h-1zM85 48h1v1h-1zM91 48h1v1h-1zM18 49h1v4h-1zM82 49h2v2h-2zM86 49h1v1h-1zM92 49h1v2h-1zM95 49h1v4h-1zM112 49h2v2h-2zM17 50h1v4h-1zM84 50h1v3h-1zM87 50h1v1h-1zM106 50h1v3h-1zM16 51h1v4h-1zM24 51h1v1h-1zM83 51h1v1h-1zM85 51h1v4h-1zM88 51h1v2h-1zM91 51h1v1h-1zM107 51h1v5h-1zM113 51h1v4h-1zM15 52h1v3h-1zM21 52h1v3h-1zM86 52h1v5h-1zM89 52h2v1h-2zM94 52h1v2h-1zM114 52h1v2h-1zM14 53h1v2h-1zM20 53h1v3h-1zM87 53h1v3h-1zM93 53h1v2h-1zM102 53h1v3h-1zM108 53h2v2h-2zM13 54h1v2h-1zM88 54h5v1h-5zM103 54h1v2h-1zM106 54h1v2h-1zM110 54h3v1h-3zM19 55h1v2h-1zM81 55h1v2h-1zM89 55h4v1h-4zM104 55h2v2h-2zM111 55h2v1h-2zM18 56h1v2h-1zM82 57h1v1h-1zM85 57h1v1h-1zM17 58h1v1h-1zM83 58h2v1h-2zM16 59h1v1h-1zM14 60h2v1h-2zM12 61h2v1h-2zM7 62h5v1H7zM0 63h7v1H0z" />
</svg>