<?xml version="1.0" encoding="UTF-8" ?>
<svg xmlns="http://www.w3.org/2000/svg"
     width="32"
     height="32"
     viewBox="0 0 32 32"
     shape-rendering="crispEdges">
    <path d="M15 3h2v3h-2zM14 4h1v3h-1zM17 4h1v3h-1zM13 5h1v3h-1zM18 5h1v3h-1zM12 6h1v3h-1zM19 6h1v3h-1zM11 7h1v3h-1zM20 7h1v3h-1zM10 8h1v3h-1zM21 8h1v3h-1zM9 9h1v3H9zM22 9h1v3h-1zM8 10h1v3H8zM23 10h1v3h-1zM7 11h1v3H7zM24 11h1v3h-1zM6 12h1v3H6zM25 12h1v3h-1zM5 13h1v3H5zM26 13h1v3h-1zM4 14h1v15H4zM27 14h1v15h-1zM3 15h1v14H3zM28 15h1v14h-1zM12 18h8v2h-8zM11 19h1v10h-1zM20 19h1v10h-1zM12 20h1v9h-1zM19 20h1v9h-1zM5 27h6v2H5zM13 27h6v2h-6zM21 27h6v2h-6z" />
</svg>