<svg xmlns="http://www.w3.org/2000/svg" width="32" height="32" shape-rendering="crispEdges" viewBox="0 0 32 32"><path d="M20 1h6v4h-6zM18 2h2v4h-2zM26 2h1v5h-1zM17 3h1v5h-1zM27 3h1v14h-1zM16 4h1v5h-1zM28 4h1v12h-1zM15 5h1v4h-1zM25 5h1v1h-1zM29 5h1v9h-1zM14 6h1v2h-1zM18 6h1v1h-1zM30 8h1v4h-1zM10 10h4v4h-4zM8 11h2v4H8zM14 11h3v3h-3zM7 12h1v5H7zM17 12h2v4h-2zM26 12h1v6h-1zM6 13h1v5H6zM19 13h1v2h-1zM5 14h1v6H5zM15 14h2v1h-2zM25 14h1v5h-1zM4 15h1v14H4zM8 15h1v1H8zM24 15h1v5h-1zM3 16h1v12H3zM13 16h2v4h-2zM23 16h1v5h-1zM12 17h1v2h-1zM15 17h2v4h-2zM22 17h1v4h-1zM2 18h1v9H2zM17 18h5v3h-5zM1 20h1v4H1zM18 21h4v1h-4zM15 23h2v4h-2zM14 24h1v5h-1zM17 24h1v2h-1zM5 25h1v5H5zM13 25h1v5h-1zM6 26h1v5H6zM12 26h1v4h-1zM7 27h5v4H7zM15 27h1v1h-1z"/></svg>
