<?xml version="1.0" encoding="UTF-8" ?>
<svg xmlns="http://www.w3.org/2000/svg"
     width="32"
     height="32"
     viewBox="0 0 32 32"
     shape-rendering="crispEdges">
    <path d="M7 2h19v3H7zM6 3h1v26H6zM26 3h1v26h-1zM5 4h1v24H5zM27 4h1v24h-1zM7 5h1v1H7zM25 5h1v25h-1zM4 6h1v20H4zM8 7h16v1H8zM8 10h16v1H8zM8 13h16v1H8zM8 16h16v1H8zM8 19h16v1H8zM7 21h18v2H7zM7 23h1v1H7zM9 24h1v1H9zM11 24h1v1h-1zM13 24h1v1h-1zM15 24h1v1h-1zM17 24h1v1h-1zM19 24h1v1h-1zM21 24h1v1h-1zM23 24h1v1h-1zM10 25h1v1h-1zM12 25h1v1h-1zM14 25h1v1h-1zM16 25h1v1h-1zM18 25h1v1h-1zM20 25h1v1h-1zM22 25h1v1h-1zM7 26h1v4H7zM8 27h17v3H8z" />
</svg>