<svg xmlns="http://www.w3.org/2000/svg"  viewBox="0 0 32 32" shape-rendering="crispEdges"><path d="M12 2h8v2h-8zM9 3h3v2H9zM20 3h3v2h-3zM8 4h1v3H8zM12 4h1v1h-1zM19 4h1v1h-1zM23 4h1v3h-1zM7 5h1v3H7zM9 5h1v1H9zM22 5h1v1h-1zM24 5h1v3h-1zM6 6h1v3H6zM25 6h1v3h-1zM5 7h1v3H5zM26 7h1v3h-1zM4 8h1v5H4zM27 8h1v5h-1zM3 9h1v14H3zM28 9h1v14h-1zM19 11h2v2h-2zM2 12h1v8H2zM18 12h1v3h-1zM29 12h1v8h-1zM17 13h1v3h-1zM19 13h1v1h-1zM16 14h1v12h-1zM15 15h1v11h-1zM4 19h1v5H4zM27 19h1v5h-1zM5 22h1v3H5zM26 22h1v3h-1zM6 23h1v3H6zM25 23h1v3h-1zM7 24h1v3H7zM24 24h1v3h-1zM8 25h1v3H8zM23 25h1v3h-1zM9 26h1v3H9zM22 26h1v3h-1zM10 27h3v2h-3zM19 27h3v2h-3zM13 28h6v2h-6zM12 29h1v1h-1zM19 29h1v1h-1z"/></svg>
