<svg xmlns="http://www.w3.org/2000/svg"
     width="24"
     height="24"
     viewBox="0 0 24 24">
    <path d="M2 2h2v2H2zM20 2h2v2h-2zM4 3h1v3H4zM19 3h1v3h-1zM3 4h1v1H3zM5 4h1v3H5zM18 4h1v3h-1zM20 4h1v1h-1zM6 5h1v3H6zM17 5h1v3h-1zM7 6h1v3H7zM16 6h1v3h-1zM8 7h1v3H8zM15 7h1v3h-1zM9 8h1v3H9zM14 8h1v3h-1zM10 9h1v6h-1zM13 9h1v6h-1zM11 10h2v4h-2zM9 13h1v3H9zM14 13h1v3h-1zM8 14h1v3H8zM15 14h1v3h-1zM7 15h1v3H7zM16 15h1v3h-1zM6 16h1v3H6zM17 16h1v3h-1zM5 17h1v3H5zM18 17h1v3h-1zM4 18h1v3H4zM19 18h1v3h-1zM3 19h1v3H3zM20 19h1v3h-1zM2 20h1v2H2zM21 20h1v2h-1z" />
</svg>