<svg xmlns="http://www.w3.org/2000/svg"
     width="24"
     height="24"
     viewBox="0 0 24 24">
    <path d="M1 3h3v3H1zM21 3h1v18h-1zM4 4h2v2H4zM20 4h1v16h-1zM22 4h1v16h-1zM6 5h2v2H6zM1 6h2v15H1zM5 6h1v1H5zM8 6h2v2H8zM7 7h1v1H7zM10 7h2v2h-2zM9 8h1v1H9zM12 8h2v2h-2zM11 9h1v1h-1zM14 9h2v2h-2zM13 10h1v1h-1zM16 10h2v4h-2zM15 11h1v4h-1zM18 11h2v2h-2zM13 13h2v2h-2zM11 14h2v2h-2zM9 15h2v2H9zM13 15h1v1h-1zM7 16h2v2H7zM11 16h1v1h-1zM5 17h2v2H5zM9 17h1v1H9zM3 18h2v2H3zM7 18h1v1H7zM5 19h1v1H5zM3 20h1v1H3z" />
</svg>