<svg xmlns="http://www.w3.org/2000/svg"
     width="32"
     height="32"
     viewBox="0 0 32 32"
     id="telegram_icon"
     shape-rendering="crispEdges">
    <text x="50%"
          y="50%"
          style="font-family:sans-serif"
          dominant-baseline="middle"
          text-anchor="middle"
          id="telegram_">Loading ...</text>
    <defs>
        <style type="text/css">#telegram_0,#telegram_1,#telegram_2{visibility:hidden}</style>
    </defs>
    <g id="telegram_0">&gt;<path d="M13 4h6v7h-6zM11 5h2v9h-2zM19 5h2v5h-2zM9 6h2v8H9zM21 6h2v3h-2zM8 7h1v8H8zM23 7h1v2h-1zM7 8h1v8H7zM24 8h1v16h-1zM6 9h1v14H6zM21 9h1v1h-1zM25 9h1v14h-1zM19 10h1v1h-1zM22 10h1v3h-1zM5 11h1v10H5zM13 11h4v1h-4zM20 11h2v9h-2zM26 11h1v10h-1zM13 12h2v1h-2zM17 12h3v1h-3zM4 13h1v6H4zM15 13h3v1h-3zM23 13h1v12h-1zM27 13h1v6h-1zM9 14h1v1H9zM13 14h3v1h-3zM18 14h1v1h-1zM10 15h4v1h-4zM16 15h2v1h-2zM19 15h1v7h-1zM8 16h4v1H8zM14 16h3v1h-3zM18 16h1v6h-1zM7 17h1v7H7zM12 17h4v1h-4zM17 17h1v4h-1zM8 18h7v1H8zM16 18h1v3h-1zM8 19h6v6H8zM15 19h1v1h-1zM14 20h1v8h-1zM20 20h1v3h-1zM22 20h1v6h-1zM15 21h1v7h-1zM16 22h2v6h-2zM18 23h2v4h-2zM20 24h2v2h-2zM9 25h5v1H9zM11 26h3v1h-3zM20 26h1v1h-1zM13 27h1v1h-1zM18 27h1v1h-1z" />
</g>
<g id="telegram_1">&gt;<path d="M13 4h6v7h-6zM11 5h2v9h-2zM19 5h2v5h-2zM9 6h2v8H9zM21 6h2v3h-2zM8 7h1v8H8zM23 7h1v2h-1zM7 8h1v8H7zM24 8h1v16h-1zM6 9h1v9H6zM21 9h1v1h-1zM25 9h1v14h-1zM19 10h1v1h-1zM22 10h1v3h-1zM5 11h1v10H5zM13 11h4v1h-4zM20 11h2v9h-2zM26 11h1v10h-1zM13 12h2v1h-2zM17 12h3v1h-3zM4 13h1v6H4zM15 13h3v1h-3zM23 13h1v12h-1zM27 13h1v6h-1zM9 14h1v1H9zM13 14h3v1h-3zM18 14h1v1h-1zM10 15h4v1h-4zM16 15h2v1h-2zM19 15h1v7h-1zM8 16h4v1H8zM14 16h3v1h-3zM18 16h1v6h-1zM7 17h1v7H7zM12 17h4v1h-4zM17 17h1v4h-1zM8 18h7v1H8zM16 18h1v3h-1zM6 19h1v4H6zM8 19h1v6H8zM10 19h4v2h-4zM15 19h1v1h-1zM9 20h1v6H9zM14 20h1v8h-1zM20 20h1v3h-1zM22 20h1v6h-1zM10 21h3v5h-3zM15 21h1v2h-1zM13 22h1v6h-1zM16 22h2v6h-2zM18 23h2v1h-2zM15 24h1v4h-1zM19 24h3v2h-3zM18 25h1v3h-1zM11 26h2v1h-2zM19 26h2v1h-2z" />
</g>
<g id="telegram_2">&gt;<path d="M13 4h6v7h-6zM11 5h2v9h-2zM19 5h2v5h-2zM9 6h2v8H9zM21 6h2v3h-2zM8 7h1v8H8zM23 7h1v2h-1zM7 8h1v8H7zM24 8h1v16h-1zM6 9h1v9H6zM21 9h1v1h-1zM25 9h1v14h-1zM19 10h1v1h-1zM22 10h1v3h-1zM5 11h1v10H5zM13 11h4v1h-4zM20 11h2v9h-2zM26 11h1v10h-1zM13 12h2v1h-2zM17 12h3v1h-3zM4 13h1v6H4zM15 13h3v1h-3zM23 13h1v12h-1zM27 13h1v6h-1zM9 14h1v1H9zM13 14h3v1h-3zM18 14h1v1h-1zM10 15h4v1h-4zM16 15h2v1h-2zM19 15h1v7h-1zM8 16h4v1H8zM14 16h3v1h-3zM18 16h1v6h-1zM7 17h1v7H7zM12 17h4v1h-4zM17 17h1v4h-1zM8 18h7v1H8zM16 18h1v3h-1zM6 19h1v4H6zM8 19h1v2H8zM10 19h4v2h-4zM15 19h1v1h-1zM9 20h1v6H9zM14 20h1v6h-1zM20 20h1v3h-1zM22 20h1v6h-1zM10 21h3v3h-3zM15 21h1v2h-1zM8 22h1v3H8zM13 22h1v6h-1zM16 22h2v4h-2zM18 23h2v1h-2zM10 24h2v2h-2zM15 24h1v4h-1zM19 24h3v2h-3zM12 25h1v2h-1zM18 25h1v3h-1zM11 26h1v1h-1zM16 26h1v2h-1zM19 26h2v1h-2zM14 27h1v1h-1zM17 27h1v1h-1z" />
</g>
<defs>
    <style type="text/css">#telegram_0,#telegram_1,#telegram_2{animation:1.5s linear telegram_k infinite}#telegram_0{animation-delay:0s}#telegram_1{animation-delay:0.5s}#telegram_2{animation-delay:1s}@keyframes telegram_k{0%,33.333333%{visibility:visible}33.333400%,100%{visibility:hidden}}#telegram_{visibility:hidden}</style>
</defs>
</svg>