<svg xmlns="http://www.w3.org/2000/svg"
     width="24"
     height="24"
     viewBox="0 0 24 24"
     shape-rendering="crispEdges">
    <path fill="#222034"
          d="M1 1h22v1H1zM1 2h1v21H1z" />
    <path fill="#c3323b"
          d="M2 2h1v1H2z" />
    <path fill="#aa161f"
          d="M3 2h18v1H3z" />
    <path fill="#c3323b"
          d="M21 2h1v1h-1z" />
    <path fill="#222034"
          d="M22 2h1v21h-1z" />
    <path fill="#871119"
          d="M2 3h1v18H2z" />
    <path fill="#c3323b"
          d="M3 3h1v1H3z" />
    <path fill="#aa161f"
          d="M4 3h16v1H4z" />
    <path fill="#c3323b"
          d="M20 3h1v1h-1z" />
    <path fill="#871119"
          d="M21 3h1v18h-1zM3 4h1v16H3z" />
    <path fill="#c3323b"
          d="M4 4h16v1H4z" />
    <path fill="#871119"
          d="M20 4h1v16h-1z" />
    <path fill="#c3323b"
          d="M4 5h1v15H4z" />
    <path fill="#af1e27"
          d="M5 5h14v8H5z" />
    <path fill="#c3323b"
          d="M19 5h1v15h-1z" />
    <path fill="#af1e27"
          d="M5 13h1v6H5z" />
    <path fill="#fff"
          d="M6 13h3v1H6z" />
    <path fill="#af1e27"
          d="M9 13h1v6H9z" />
    <path fill="#fff"
          d="M10 13h3v1h-3z" />
    <path fill="#af1e27"
          d="M13 13h1v6h-1z" />
    <path fill="#fff"
          d="M14 13h3v1h-3z" />
    <path fill="#af1e27"
          d="M17 13h2v6h-2z" />
    <path fill="#fff"
          d="M6 14h1v4H6z" />
    <path fill="#af1e27"
          d="M7 14h2v1H7z" />
    <path fill="#fff"
          d="M10 14h1v2h-1z" />
    <path fill="#af1e27"
          d="M11 14h2v1h-2z" />
    <path fill="#fff"
          d="M14 14h1v4h-1z" />
    <path fill="#af1e27"
          d="M15 14h2v3h-2z" />
    <path fill="#fff"
          d="M7 15h2v1H7zM11 15h2v1h-2z" />
    <path fill="#af1e27"
          d="M7 16h2v1H7zM10 16h2v1h-2z" />
    <path fill="#fff"
          d="M12 16h1v2h-1zM7 17h2v1H7zM10 17h2v1h-2zM15 17h2v1h-2z" />
    <path fill="#af1e27"
          d="M6 18h3v1H6zM10 18h3v1h-3zM14 18h3v1h-3z" />
    <path fill="#c3323b"
          d="M5 19h14v1H5zM3 20h1v1H3z" />
    <path fill="#6e0d13"
          d="M4 20h16v2H4z" />
    <path fill="#c3323b"
          d="M20 20h1v1h-1zM2 21h1v1H2z" />
    <path fill="#6e0d13"
          d="M3 21h1v1H3zM20 21h1v1h-1z" />
    <path fill="#c3323b"
          d="M21 21h1v1h-1z" />
    <path fill="#222034"
          d="M2 22h20v1H2z" />
</svg>