<svg xmlns="http://www.w3.org/2000/svg"
     width="32"
     height="24"
     viewBox="0 0 32 24"
     shape-rendering="crispEdges">
    <path fill="#222034"
          d="M1 1h30v1H1zM1 2h1v21H1z" />
    <path fill="#c3323b"
          d="M2 2h1v1H2z" />
    <path fill="#aa161f"
          d="M3 2h26v1H3z" />
    <path fill="#c3323b"
          d="M29 2h1v1h-1z" />
    <path fill="#222034"
          d="M30 2h1v21h-1z" />
    <path fill="#871119"
          d="M2 3h1v18H2z" />
    <path fill="#c3323b"
          d="M3 3h1v1H3z" />
    <path fill="#aa161f"
          d="M4 3h24v1H4z" />
    <path fill="#c3323b"
          d="M28 3h1v1h-1z" />
    <path fill="#871119"
          d="M29 3h1v18h-1zM3 4h1v16H3z" />
    <path fill="#c3323b"
          d="M4 4h24v1H4z" />
    <path fill="#871119"
          d="M28 4h1v16h-1z" />
    <path fill="#c3323b"
          d="M4 5h1v15H4z" />
    <path fill="#af1e27"
          d="M5 5h22v1H5z" />
    <path fill="#c3323b"
          d="M27 5h1v15h-1z" />
    <path fill="#af1e27"
          d="M5 6h3v1H5z" />
    <path fill="#fff"
          d="M8 6h1v1H8z" />
    <path fill="#af1e27"
          d="M9 6h18v1H9zM5 7h2v1H5z" />
    <path fill="#fff"
          d="M7 7h1v1H7z" />
    <path fill="#af1e27"
          d="M8 7h1v4H8z" />
    <path fill="#fff"
          d="M9 7h1v1H9z" />
    <path fill="#af1e27"
          d="M10 7h17v1H10zM5 8h1v11H5z" />
    <path fill="#fff"
          d="M6 8h1v1H6z" />
    <path fill="#af1e27"
          d="M7 8h1v1H7zM9 8h1v1H9z" />
    <path fill="#fff"
          d="M10 8h1v1h-1z" />
    <path fill="#af1e27"
          d="M11 8h16v5H11zM6 9h1v10H6z" />
    <path fill="#fff"
          d="M7 9h1v3H7zM9 9h1v3H9z" />
    <path fill="#af1e27"
          d="M10 9h1v4h-1z" />
    <path fill="#fff"
          d="M8 11h1v1H8z" />
    <path fill="#af1e27"
          d="M7 12h3v1H7zM7 13h2v6H7z" />
    <path fill="#fff"
          d="M9 13h3v1H9z" />
    <path fill="#af1e27"
          d="M12 13h1v6h-1z" />
    <path fill="#fff"
          d="M13 13h1v5h-1z" />
    <path fill="#af1e27"
          d="M14 13h1v2h-1z" />
    <path fill="#fff"
          d="M15 13h1v5h-1z" />
    <path fill="#af1e27"
          d="M16 13h1v6h-1z" />
    <path fill="#fff"
          d="M17 13h1v5h-1z" />
    <path fill="#af1e27"
          d="M18 13h1v6h-1z" />
    <path fill="#fff"
          d="M19 13h3v1h-3z" />
    <path fill="#af1e27"
          d="M22 13h1v6h-1z" />
    <path fill="#fff"
          d="M23 13h3v1h-3z" />
    <path fill="#af1e27"
          d="M26 13h1v6h-1z" />
    <path fill="#fff"
          d="M9 14h1v2H9z" />
    <path fill="#af1e27"
          d="M10 14h2v1h-2z" />
    <path fill="#fff"
          d="M19 14h1v4h-1z" />
    <path fill="#af1e27"
          d="M20 14h2v1h-2zM23 14h1v5h-1z" />
    <path fill="#fff"
          d="M24 14h1v4h-1z" />
    <path fill="#af1e27"
          d="M25 14h1v5h-1z" />
    <path fill="#fff"
          d="M10 15h2v1h-2zM14 15h1v1h-1zM20 15h2v1h-2z" />
    <path fill="#af1e27"
          d="M9 16h2v1H9z" />
    <path fill="#fff"
          d="M11 16h1v2h-1z" />
    <path fill="#af1e27"
          d="M14 16h1v3h-1zM20 16h2v3h-2z" />
    <path fill="#fff"
          d="M9 17h2v1H9z" />
    <path fill="#af1e27"
          d="M9 18h3v1H9zM13 18h1v1h-1zM15 18h1v1h-1zM17 18h1v1h-1zM19 18h1v1h-1zM24 18h1v1h-1z" />
    <path fill="#c3323b"
          d="M5 19h22v1H5zM3 20h1v1H3z" />
    <path fill="#6e0d13"
          d="M4 20h24v2H4z" />
    <path fill="#c3323b"
          d="M28 20h1v1h-1zM2 21h1v1H2z" />
    <path fill="#6e0d13"
          d="M3 21h1v1H3zM28 21h1v1h-1z" />
    <path fill="#c3323b"
          d="M29 21h1v1h-1z" />
    <path fill="#222034"
          d="M2 22h28v1H2z" />
</svg>