<?xml version="1.0" encoding="UTF-8"?>
<svg version="1.1"
     width="32"
     height="32"
     viewBox="0 0 32 32"
     xmlns="http://www.w3.org/2000/svg"
     shape-rendering="crispEdges">
    <rect x="7"
          y="1"
          width="19"
          height="3" />
    <rect x="6"
          y="2"
          width="1"
          height="28" />
    <rect x="26"
          y="2"
          width="1"
          height="28" />
    <rect x="5"
          y="3"
          width="1"
          height="26" />
    <rect x="27"
          y="3"
          width="1"
          height="26" />
    <rect x="7"
          y="4"
          width="1"
          height="1" />
    <rect x="25"
          y="4"
          width="1"
          height="27" />
    <rect x="4"
          y="5"
          width="1"
          height="22" />
    <rect x="9"
          y="6"
          width="11"
          height="3" />
    <rect x="9"
          y="11"
          width="14"
          height="3" />
    <rect x="9"
          y="16"
          width="13"
          height="3" />
    <rect x="7"
          y="21"
          width="18"
          height="3" />
    <rect x="7"
          y="24"
          width="1"
          height="1" />
    <rect x="7"
          y="27"
          width="1"
          height="4" />
    <rect x="8"
          y="28"
          width="17"
          height="3" />
</svg>