<?xml version="1.0" encoding="UTF-8"?>
<svg version="1.1"
     width="32"
     height="32"
     viewBox="0 0 32 32"
     xmlns="http://www.w3.org/2000/svg"
     shape-rendering="crispEdges">
    <rect x="7"
          y="1"
          width="19"
          height="3" />
    <rect x="6"
          y="2"
          width="1"
          height="28" />
    <rect x="26"
          y="2"
          width="1"
          height="28" />
    <rect x="5"
          y="3"
          width="1"
          height="26" />
    <rect x="27"
          y="3"
          width="1"
          height="26" />
    <rect x="7"
          y="4"
          width="1"
          height="1" />
    <rect x="25"
          y="4"
          width="1"
          height="27" />
    <rect x="4"
          y="5"
          width="1"
          height="22" />
    <rect x="11"
          y="5"
          width="3"
          height="13" />
    <rect x="18"
          y="5"
          width="3"
          height="13" />
    <rect x="10"
          y="6"
          width="1"
          height="11" />
    <rect x="14"
          y="6"
          width="1"
          height="14" />
    <rect x="17"
          y="6"
          width="1"
          height="14" />
    <rect x="21"
          y="6"
          width="1"
          height="11" />
    <rect x="9"
          y="7"
          width="1"
          height="9" />
    <rect x="15"
          y="7"
          width="2"
          height="13" />
    <rect x="22"
          y="7"
          width="1"
          height="9" />
    <rect x="8"
          y="8"
          width="1"
          height="6" />
    <rect x="23"
          y="8"
          width="1"
          height="6" />
    <rect x="12"
          y="18"
          width="2"
          height="1" />
    <rect x="18"
          y="18"
          width="2"
          height="1" />
    <rect x="13"
          y="19"
          width="1"
          height="1" />
    <rect x="18"
          y="19"
          width="1"
          height="1" />
    <rect x="7"
          y="21"
          width="18"
          height="3" />
    <rect x="7"
          y="24"
          width="1"
          height="1" />
    <rect x="7"
          y="27"
          width="1"
          height="4" />
    <rect x="8"
          y="28"
          width="17"
          height="3" />
</svg>