<svg xmlns="http://www.w3.org/2000/svg"
     width="32"
     height="32"
     viewBox="0 0 32 32"
     shape-rendering="crispEdges">
    <path d="M13 3h6v4h-6zM10 4h3v24h-3zM19 4h3v24h-3zM9 5h1v22H9zM22 5h1v22h-1zM8 6h1v20H8zM23 6h1v20h-1zM7 7h1v18H7zM13 7h2v1h-2zM17 7h2v1h-2zM24 7h1v18h-1zM6 8h1v16H6zM13 8h1v21h-1zM18 8h1v21h-1zM25 8h1v16h-1zM5 9h1v14H5zM26 9h1v14h-1zM4 10h1v12H4zM14 10h1v4h-1zM17 10h1v4h-1zM27 10h1v12h-1zM15 11h2v2h-2zM3 13h1v6H3zM28 13h1v6h-1zM14 24h1v5h-1zM17 24h1v5h-1zM15 25h2v4h-2z" />
</svg>